<svg width="26" height="26" viewBox="0 0 26 26" fill="none" xmlns="http://www.w3.org/2000/svg">
<path d="M13 3.25C9.86743 3.25 7.3125 5.80493 7.3125 8.9375C7.3125 10.8704 8.29639 12.5811 9.77539 13.6094C6.4397 14.9106 4.0625 18.1606 4.0625 21.9375H5.6875C5.6875 18.3638 8.28052 15.3772 11.6797 14.752L12.1875 16.25H13.8125L14.3203 14.752C17.7195 15.3772 20.3125 18.3638 20.3125 21.9375H21.9375C21.9375 18.1606 19.5603 14.9106 16.2246 13.6094C17.7036 12.5811 18.6875 10.8704 18.6875 8.9375C18.6875 5.80493 16.1326 3.25 13 3.25ZM13 4.875C15.2534 4.875 17.0625 6.68408 17.0625 8.9375C17.0625 11.1909 15.2534 13 13 13C10.7466 13 8.9375 11.1909 8.9375 8.9375C8.9375 6.68408 10.7466 4.875 13 4.875ZM12.1875 17.0625L11.375 21.9375H14.625L13.8125 17.0625H12.1875Z" fill="currentColor"/>
</svg>
