<svg width="26" height="26" viewBox="0 0 26 26" fill="none" xmlns="http://www.w3.org/2000/svg">
<path d="M13.8125 4.0625V10.0801C13.4888 9.69922 13.073 9.23901 12.5684 8.75977C11.4321 7.68384 9.91504 6.5 8.125 6.5C5.44312 6.5 3.25 8.69312 3.25 11.375C3.25 12.9873 4.04346 14.4219 5.25586 15.3105C3.11353 16.3738 1.625 18.5764 1.625 21.125H3.25C3.25 18.4241 5.42407 16.25 8.125 16.25C10.8259 16.25 13 18.4241 13 21.125H14.625C14.625 18.5574 13.1143 16.3389 10.9434 15.2852C11.5305 14.8948 12.0701 14.4314 12.543 13.9902C13.4062 13.1809 13.949 12.5334 14.2188 12.1875H15.4375V14.5234L16.707 13.6855L18.9414 12.1875H24.375V4.0625H13.8125ZM15.4375 5.6875H22.75V10.5625H18.4336L18.2305 10.6895L17.0625 11.4766V10.5625H15.4375V5.6875ZM8.125 8.125C9.12476 8.125 10.4419 8.97241 11.4512 9.92773C12.2065 10.6418 12.4795 11.0608 12.7207 11.375C12.4731 11.6892 12.1938 12.105 11.4258 12.8223C10.4038 13.7808 9.06763 14.625 8.125 14.625C6.32227 14.625 4.875 13.1777 4.875 11.375C4.875 9.57227 6.32227 8.125 8.125 8.125Z" fill="#353637"/>
</svg>
