<svg width="26" height="26" viewBox="0 0 26 26" fill="none" xmlns="http://www.w3.org/2000/svg">
<path d="M20.0332 3.25L19.8301 3.40234L13.8125 7.89648C13.4983 7.52832 13.0317 7.3125 12.543 7.3125H6.5C5.61133 7.3125 4.875 8.04883 4.875 8.9375V13.8125C4.875 14.7012 5.61133 15.4375 6.5 15.4375H7.3125V16.25H6.5C4.71313 16.25 3.25 17.7131 3.25 19.5C3.25 21.2869 4.71313 22.75 6.5 22.75H16.25C18.0369 22.75 19.5 21.2869 19.5 19.5C19.5 17.7131 18.0369 16.25 16.25 16.25H14.625V15.4375H15.4375C16.3262 15.4375 17.0625 14.7012 17.0625 13.8125V13.2031C17.0625 13.1301 17.0466 13.0698 17.0371 13H17.0625V12.3652C17.0625 11.9399 16.9197 11.5432 16.6816 11.1973L22.5469 4.69727L22.75 4.46875V3.25H20.0332ZM19.3984 5.76367L15.6152 9.95312L14.9043 9.14062L19.3984 5.76367ZM22.75 5.81445L21.125 8.02344V12.2637C21.125 12.9492 21.5249 13.6094 22.2168 13.8633C22.5247 13.9775 22.75 14.2664 22.75 14.625C22.75 15.0852 22.3977 15.4375 21.9375 15.4375C21.4773 15.4375 21.125 15.0852 21.125 14.625H19.5C19.5 15.9612 20.6013 17.0625 21.9375 17.0625C23.2737 17.0625 24.375 15.9612 24.375 14.625C24.375 13.5808 23.7117 12.6826 22.7754 12.3398C22.7754 12.3398 22.75 12.3145 22.75 12.2637V5.81445ZM6.5 8.9375H9.90234L10.5879 12.3398L10.7148 13H15.2344C15.355 13 15.4375 13.0825 15.4375 13.2031V13.8125H6.5V8.9375ZM11.5527 8.9375H12.543C12.5557 8.9375 12.562 8.95337 12.5684 8.96289H12.5938L12.6191 8.98828L14.7012 11.375H12.0352L11.5527 8.9375ZM8.9375 15.4375H13V16.25H8.9375V15.4375ZM6.5 17.875H16.25C17.1577 17.875 17.875 18.5923 17.875 19.5C17.875 20.4077 17.1577 21.125 16.25 21.125H6.5C5.59229 21.125 4.875 20.4077 4.875 19.5C4.875 18.5923 5.59229 17.875 6.5 17.875ZM6.5 18.6875C6.05249 18.6875 5.6875 19.0525 5.6875 19.5C5.6875 19.9475 6.05249 20.3125 6.5 20.3125C6.94751 20.3125 7.3125 19.9475 7.3125 19.5C7.3125 19.0525 6.94751 18.6875 6.5 18.6875ZM9.75 18.6875C9.30249 18.6875 8.9375 19.0525 8.9375 19.5C8.9375 19.9475 9.30249 20.3125 9.75 20.3125C10.1975 20.3125 10.5625 19.9475 10.5625 19.5C10.5625 19.0525 10.1975 18.6875 9.75 18.6875ZM13 18.6875C12.5525 18.6875 12.1875 19.0525 12.1875 19.5C12.1875 19.9475 12.5525 20.3125 13 20.3125C13.4475 20.3125 13.8125 19.9475 13.8125 19.5C13.8125 19.0525 13.4475 18.6875 13 18.6875ZM16.25 18.6875C15.8025 18.6875 15.4375 19.0525 15.4375 19.5C15.4375 19.9475 15.8025 20.3125 16.25 20.3125C16.6975 20.3125 17.0625 19.9475 17.0625 19.5C17.0625 19.0525 16.6975 18.6875 16.25 18.6875Z" fill="currentColor"/>
</svg>
