<svg width="26" height="26" viewBox="0 0 26 26" fill="none" xmlns="http://www.w3.org/2000/svg">
<path d="M12.1904 0.8125V1.64087C11.8477 1.67261 10.8955 1.79639 9.89575 2.29785C8.79761 2.8501 7.67407 4.01172 7.42017 5.80493C6.82666 5.91602 6.31885 6.11914 6.03638 6.5127C5.646 7.05859 5.68726 7.62671 5.68726 7.90283V9.75H7.31543C7.31543 11.7051 8.31519 13.438 9.82593 14.46C6.92188 15.7009 4.87793 18.5859 4.87793 21.9375H6.50293C6.50293 20.1189 7.24243 18.4812 8.44214 17.3037L10.3909 19.7793L13.0029 18.04L15.6658 19.8142L17.4272 17.1768C18.7031 18.3606 19.5029 20.0522 19.5029 21.9375H21.1279C21.1279 18.5859 19.084 15.7009 16.1799 14.46C17.6907 13.438 18.6904 11.7051 18.6904 9.75H20.3123V7.90283C20.3154 7.69653 20.4265 7.13159 20.0457 6.54443C19.7632 6.11279 19.2268 5.90649 18.5857 5.79858C18.3318 4.0022 17.2241 2.8374 16.1355 2.28833C15.0786 1.75513 14.0884 1.65356 13.8154 1.63452V0.8125H12.1904ZM13.8154 3.27539C14.0471 3.29761 14.6755 3.37378 15.4023 3.73877C16.1165 4.10059 16.7639 4.62109 16.9829 5.6875H16.2529V7.3125H17.8779C18.6492 7.3125 18.7031 7.4585 18.6841 7.42993C18.6619 7.40137 18.6904 7.53467 18.6873 7.90283V8.125H7.31226V7.90283C7.31226 7.60767 7.34717 7.47437 7.35669 7.46167C7.36621 7.44897 7.44238 7.3125 8.12476 7.3125H9.75293V5.6875H9.02612C9.24829 4.63696 9.89893 4.11328 10.6226 3.75147C11.3271 3.39917 11.9207 3.31348 12.1904 3.28491V4.92578H13.8154V3.27539ZM8.94043 9.75H17.0654C17.0654 12.0034 15.2563 13.8125 13.0029 13.8125C10.7495 13.8125 8.94043 12.0034 8.94043 9.75ZM13.0029 15.4375C14.1296 15.4375 15.1865 15.72 16.1101 16.2214L15.2151 17.5608L13.0029 16.085L10.74 17.5957L9.73706 16.3198C10.6956 15.7612 11.8096 15.4375 13.0029 15.4375Z" fill="currentColor"/>
</svg>
