<svg width="26" height="26" viewBox="0 0 26 26" fill="none" xmlns="http://www.w3.org/2000/svg">
<path d="M12.1907 0.8125V1.64087C11.8479 1.67261 10.8958 1.79639 9.896 2.29785C8.79785 2.8501 7.67432 4.01172 7.42041 5.80493C6.82691 5.91602 6.31909 6.11914 6.03662 6.5127C5.64624 7.05859 5.6875 7.62671 5.6875 7.90283V9.75H7.31567C7.31567 11.7051 8.31543 13.438 9.82617 14.46C6.92212 15.7009 4.87817 18.5859 4.87817 21.9375H6.50317C6.50317 20.1189 7.24268 18.4812 8.44238 17.3037L10.3911 19.7793L13.0032 18.04L15.666 19.8142L17.4275 17.1768C18.7034 18.3606 19.5032 20.0522 19.5032 21.9375H21.1282C21.1282 18.5859 19.0842 15.7009 16.1802 14.46C17.6909 13.438 18.6907 11.7051 18.6907 9.75H20.3125V7.90283C20.3157 7.69653 20.4268 7.13159 20.0459 6.54443C19.7634 6.11279 19.2271 5.90649 18.5859 5.79858C18.332 4.0022 17.2244 2.8374 16.1357 2.28833C15.0789 1.75513 14.0886 1.65356 13.8157 1.63452V0.8125H12.1907ZM13.8157 3.27539C14.0474 3.29761 14.6758 3.37378 15.4026 3.73877C16.1167 4.10059 16.7642 4.62109 16.9832 5.6875H16.2532V7.3125H17.8782C18.6494 7.3125 18.7034 7.4585 18.6843 7.42993C18.6621 7.40137 18.6907 7.53467 18.6875 7.90283V8.125H7.3125V7.90283C7.3125 7.60767 7.34741 7.47437 7.35693 7.46167C7.36646 7.44897 7.44263 7.3125 8.125 7.3125H9.75317V5.6875H9.02637C9.24854 4.63696 9.89917 4.11328 10.6228 3.75147C11.3274 3.39917 11.9209 3.31348 12.1907 3.28491V4.92578H13.8157V3.27539ZM8.94067 9.75H17.0657C17.0657 12.0034 15.2566 13.8125 13.0032 13.8125C10.7498 13.8125 8.94067 12.0034 8.94067 9.75ZM13.0032 15.4375C14.1299 15.4375 15.1868 15.72 16.1104 16.2214L15.2153 17.5608L13.0032 16.085L10.7402 17.5957L9.73731 16.3198C10.6958 15.7612 11.8098 15.4375 13.0032 15.4375Z" fill="currentColor"/>
</svg>
