<svg width="26" height="26" viewBox="0 0 26 26" fill="none" xmlns="http://www.w3.org/2000/svg">
<path d="M12.1875 2.4375V4.11328C7.90601 4.50049 4.50049 7.90601 4.11328 12.1875H2.4375V13.8125H4.11328C4.50049 18.094 7.90601 21.4995 12.1875 21.8867V23.5625H13.8125V21.9121C17.3831 21.5916 20.3379 19.1477 21.4551 15.8691L19.0684 17.0625C17.8972 18.8113 16.0056 20.0173 13.8125 20.2617V18.6875H12.1875V20.2617C8.81372 19.8809 6.11914 17.1863 5.73828 13.8125H7.3125V12.1875H5.73828C6.11914 8.81372 8.81372 6.11914 12.1875 5.73828V7.3125H13.8125V5.73828C16.0056 5.98267 17.8972 7.18872 19.0684 8.9375L21.4551 10.1309C20.3379 6.8523 17.3831 4.40845 13.8125 4.08789V2.4375H12.1875ZM18.6875 10.5625L19.5 13L18.6875 15.4375L23.5625 13L18.6875 10.5625Z" fill="#353637"/>
</svg>
