<?xml version="1.0" encoding="UTF-8" standalone="no"?>
<svg
   xmlns:dc="http://purl.org/dc/elements/1.1/"
   xmlns:cc="http://creativecommons.org/ns#"
   xmlns:rdf="http://www.w3.org/1999/02/22-rdf-syntax-ns#"
   xmlns:svg="http://www.w3.org/2000/svg"
   xmlns="http://www.w3.org/2000/svg"
   viewBox="0 0 299.34668 299.34668"
   height="299.34668"
   width="299.34668"
   xml:space="preserve"
   id="svg2"
   version="1.1"><metadata
     id="metadata8"><rdf:RDF><cc:Work
         rdf:about=""><dc:format>image/svg+xml</dc:format><dc:type
           rdf:resource="http://purl.org/dc/dcmitype/StillImage" /></cc:Work></rdf:RDF></metadata><defs
     id="defs6" /><g
     transform="matrix(1.3333333,0,0,-1.3333333,0,299.34667)"
     id="g10"><g
       transform="scale(0.1)"
       id="g12"><path
         id="path14"
         style="fill:#8B9DB5;fill-opacity:1;fill-rule:nonzero;stroke:none"
         d="M 0,0 H 2245.12 V 2245.08 H 0 V 0" /><path
         id="path16"
         style="fill:#ffffff;fill-opacity:1;fill-rule:nonzero;stroke:none"
         d="m 498.059,1718.36 c 0,21.83 -4.075,40.07 -12.231,54.72 -8.152,14.64 -18.23,25.55 -30.254,32.74 -12.019,7.18 -24.453,11.74 -37.304,13.68 -12.84,1.93 -25.348,2.89 -37.508,2.89 h -65.899 v -215.1 h 64.246 c 21.555,0 39.438,2.75 53.672,8.29 14.231,5.52 26.172,13.19 35.852,23 9.668,9.8 16.992,21.55 21.965,35.23 4.976,13.67 7.461,28.53 7.461,44.55 z m 75.015,5.8 c 0,-26.8 -4.414,-50.98 -13.261,-72.53 -8.844,-21.55 -21.485,-39.93 -37.918,-55.12 -16.446,-15.2 -36.622,-26.94 -60.516,-35.23 -23.899,-8.29 -52.434,-12.44 -85.586,-12.44 h -60.93 V 1355.7 c 0,-2.21 -0.621,-4.15 -1.867,-5.81 -1.238,-1.64 -3.176,-2.96 -5.801,-3.93 -2.629,-0.97 -6.215,-1.8 -10.773,-2.49 -4.563,-0.68 -10.301,-1.04 -17.203,-1.04 -6.91,0 -12.641,0.36 -17.203,1.04 -4.555,0.69 -8.223,1.52 -10.981,2.49 -2.765,0.97 -4.703,2.29 -5.801,3.93 -1.109,1.66 -1.66,3.6 -1.66,5.81 v 494.88 c 0,11.05 2.903,18.92 8.707,23.62 5.801,4.7 12.289,7.05 19.477,7.05 H 386.57 c 11.606,0 22.727,-0.48 33.364,-1.45 10.632,-0.97 23.211,-3.04 37.711,-6.21 14.511,-3.19 29.289,-9.13 44.359,-17.82 15.047,-8.71 27.832,-19.42 38.34,-32.13 10.496,-12.71 18.574,-27.43 24.234,-44.14 5.664,-16.73 8.496,-35.16 8.496,-55.34" /><path
         id="path18"
         style="fill:#ffffff;fill-opacity:1;fill-rule:nonzero;stroke:none"
         d="m 1314.88,1355.7 c 0,-2.21 -0.55,-4.15 -1.66,-5.81 -1.1,-1.64 -3.03,-2.96 -5.8,-3.93 -2.76,-0.97 -6.42,-1.8 -10.98,-2.49 -4.56,-0.68 -10.15,-1.04 -16.79,-1.04 -7.19,0 -12.99,0.36 -17.4,1.04 -4.43,0.69 -8.02,1.52 -10.79,2.49 -2.76,0.97 -4.69,2.29 -5.8,3.93 -1.1,1.66 -1.66,3.6 -1.66,5.81 v 237.91 H 999.883 V 1355.7 c 0,-2.21 -0.559,-4.15 -1.66,-5.81 -1.106,-1.64 -3.035,-2.96 -5.801,-3.93 -2.766,-0.97 -6.426,-1.8 -10.984,-2.49 -4.551,-0.68 -10.293,-1.04 -17.2,-1.04 -6.633,0 -12.297,0.36 -16.992,1.04 -4.707,0.69 -8.437,1.52 -11.191,2.49 -2.762,0.97 -4.7,2.29 -5.801,3.93 -1.113,1.66 -1.66,3.6 -1.66,5.81 v 514.78 c 0,2.21 0.547,4.14 1.66,5.8 1.101,1.65 3.039,2.96 5.801,3.94 2.754,0.96 6.484,1.8 11.191,2.49 4.695,0.68 10.359,1.03 16.992,1.03 6.907,0 12.649,-0.35 17.2,-1.03 4.558,-0.69 8.218,-1.53 10.984,-2.49 2.766,-0.98 4.695,-2.29 5.801,-3.94 1.101,-1.66 1.66,-3.59 1.66,-5.8 v -214.7 H 1244 v 214.7 c 0,2.21 0.56,4.14 1.66,5.8 1.11,1.65 3.04,2.96 5.8,3.94 2.77,0.96 6.36,1.8 10.79,2.49 4.41,0.68 10.21,1.03 17.4,1.03 6.64,0 12.23,-0.35 16.79,-1.03 4.56,-0.69 8.22,-1.53 10.98,-2.49 2.77,-0.98 4.7,-2.29 5.8,-3.94 1.11,-1.66 1.66,-3.59 1.66,-5.8 V 1355.7" /><path
         id="path20"
         style="fill:#ffffff;fill-opacity:1;fill-rule:nonzero;stroke:none"
         d="m 2004.55,1374.35 c 0,-4.97 -0.27,-9.33 -0.83,-13.06 -0.56,-3.73 -1.51,-6.83 -2.9,-9.31 -1.39,-2.5 -2.97,-4.29 -4.77,-5.39 -1.79,-1.12 -3.79,-1.66 -6,-1.66 h -257.39 c -6.36,0 -12.37,2.13 -18.03,6.42 -5.67,4.28 -8.5,11.81 -8.5,22.59 v 478.3 c 0,10.78 2.83,18.3 8.5,22.59 5.66,4.28 11.67,6.42 18.03,6.42 h 254.49 c 2.21,0 4.21,-0.55 6,-1.66 1.8,-1.1 3.25,-2.9 4.36,-5.39 1.1,-2.48 2,-5.59 2.7,-9.31 0.68,-3.74 1.03,-8.37 1.03,-13.89 0,-4.98 -0.35,-9.33 -1.03,-13.06 -0.7,-3.73 -1.6,-6.78 -2.7,-9.12 -1.11,-2.35 -2.56,-4.08 -4.36,-5.18 -1.79,-1.11 -3.79,-1.66 -6,-1.66 H 1777.42 V 1653.7 h 179.88 c 2.21,0 4.21,-0.61 6.01,-1.86 1.8,-1.24 3.32,-2.97 4.56,-5.18 1.25,-2.21 2.14,-5.25 2.7,-9.12 0.54,-3.86 0.83,-8.43 0.83,-13.67 0,-4.98 -0.29,-9.27 -0.83,-12.85 -0.56,-3.59 -1.45,-6.5 -2.7,-8.7 -1.24,-2.22 -2.76,-3.81 -4.56,-4.78 -1.8,-0.97 -3.8,-1.44 -6.01,-1.44 h -179.88 v -191.91 h 212.63 c 2.21,0 4.21,-0.55 6,-1.66 1.8,-1.1 3.38,-2.83 4.77,-5.17 1.39,-2.36 2.34,-5.4 2.9,-9.13 0.56,-3.73 0.83,-8.35 0.83,-13.88" /><path
         id="path22"
         style="fill:none;stroke:#ffffff;stroke-width:4.86000013;stroke-linecap:butt;stroke-linejoin:miter;stroke-miterlimit:4;stroke-dasharray:none;stroke-opacity:1"
         d="M 733.398,1947.37 V 1254.35" /><path
         id="path24"
         style="fill:none;stroke:#ffffff;stroke-width:4.86000013;stroke-linecap:butt;stroke-linejoin:miter;stroke-miterlimit:4;stroke-dasharray:none;stroke-opacity:1"
         d="M 1511.06,1947.37 V 1254.35" /><path
         id="path26"
         style="fill:#ffffff;fill-opacity:1;fill-rule:nonzero;stroke:none"
         d="m 311.113,954 c 0,4.641 -0.355,9.129 -1.062,13.469 -0.715,4.34 -1.938,8.191 -3.66,11.551 -1.723,3.359 -4.043,6.05 -6.953,8.07 -2.911,2.019 -6.528,3.031 -10.86,3.031 -2.168,0 -4.301,-0.32 -6.394,-0.961 -2.102,-0.64 -4.231,-1.648 -6.399,-3.031 -2.164,-1.367 -4.43,-3.188 -6.797,-5.438 -2.371,-2.261 -4.871,-5.031 -7.511,-8.32 v -36.133 c 4.601,-5.578 8.968,-9.847 13.093,-12.808 4.125,-2.961 8.457,-4.43 12.993,-4.43 4.195,0 7.796,1 10.812,3.02 3.008,2.019 5.441,4.71 7.309,8.07 1.859,3.359 3.226,7.129 4.113,11.301 0.879,4.168 1.316,8.379 1.316,12.609 z m 17.25,1.922 c 0,-7.942 -0.859,-15.07 -2.57,-21.391 -1.715,-6.332 -4.238,-11.691 -7.57,-16.09 -3.325,-4.402 -7.446,-7.8 -12.36,-10.203 -4.906,-2.379 -10.519,-3.566 -16.843,-3.566 -2.692,0 -5.18,0.258 -7.465,0.797 -2.285,0.551 -4.528,1.383 -6.711,2.531 -2.188,1.141 -4.356,2.59 -6.508,4.34 -2.152,1.742 -4.441,3.789 -6.859,6.148 V 873.09 c 0,-0.539 -0.133,-1.008 -0.403,-1.41 -0.269,-0.41 -0.707,-0.739 -1.312,-1.008 -0.606,-0.274 -1.446,-0.473 -2.52,-0.613 -1.082,-0.129 -2.457,-0.188 -4.14,-0.188 -1.614,0 -2.961,0.059 -4.036,0.188 -1.078,0.14 -1.933,0.339 -2.574,0.613 -0.637,0.269 -1.07,0.598 -1.304,1.008 -0.243,0.402 -0.36,0.871 -0.36,1.41 v 126.808 c 0,0.612 0.106,1.102 0.305,1.472 0.203,0.37 0.605,0.68 1.211,0.96 0.605,0.26 1.375,0.45 2.316,0.55 0.945,0.1 2.086,0.15 3.434,0.15 1.414,0 2.574,-0.05 3.48,-0.15 0.91,-0.1 1.668,-0.29 2.274,-0.55 0.605,-0.28 1.019,-0.59 1.257,-0.96 0.235,-0.37 0.352,-0.86 0.352,-1.472 v -12.199 c 2.762,2.821 5.414,5.281 7.969,7.36 2.558,2.082 5.133,3.82 7.719,5.201 2.589,1.37 5.246,2.42 7.968,3.12 2.727,0.71 5.602,1.07 8.629,1.07 6.594,0 12.207,-1.28 16.848,-3.84 4.64,-2.559 8.426,-6.059 11.351,-10.489 2.926,-4.441 5.059,-9.601 6.407,-15.492 1.343,-5.891 2.015,-12.117 2.015,-18.707" /><path
         id="path28"
         style="fill:#ffffff;fill-opacity:1;fill-rule:nonzero;stroke:none"
         d="m 406.453,993.949 c 0,-1.48 -0.035,-2.73 -0.105,-3.73 -0.071,-1.008 -0.196,-1.797 -0.403,-2.379 -0.203,-0.559 -0.457,-1 -0.757,-1.301 -0.305,-0.309 -0.723,-0.449 -1.262,-0.449 -0.535,0 -1.192,0.14 -1.961,0.449 -0.774,0.301 -1.652,0.602 -2.629,0.902 -0.977,0.309 -2.07,0.59 -3.273,0.86 -1.208,0.269 -2.528,0.398 -3.934,0.398 -1.691,0 -3.328,-0.328 -4.949,-1 -1.614,-0.679 -3.313,-1.789 -5.09,-3.328 -1.785,-1.562 -3.652,-3.609 -5.606,-6.16 -1.941,-2.551 -4.101,-5.68 -6.457,-9.379 v -59.73 c 0,-0.532 -0.132,-0.981 -0.398,-1.352 -0.274,-0.379 -0.703,-0.699 -1.309,-0.961 -0.605,-0.269 -1.457,-0.469 -2.527,-0.609 -1.074,-0.129 -2.453,-0.2 -4.133,-0.2 -1.621,0 -2.961,0.071 -4.043,0.2 -1.074,0.14 -1.933,0.34 -2.566,0.609 -0.637,0.262 -1.074,0.582 -1.313,0.961 -0.242,0.371 -0.359,0.82 -0.359,1.352 v 90.796 c 0,0.542 0.105,0.992 0.312,1.362 0.196,0.37 0.606,0.71 1.211,1.02 0.606,0.3 1.368,0.5 2.317,0.6 0.945,0.1 2.183,0.15 3.726,0.15 1.489,0 2.715,-0.05 3.684,-0.15 0.976,-0.1 1.738,-0.3 2.273,-0.6 0.539,-0.31 0.93,-0.65 1.164,-1.02 0.235,-0.37 0.352,-0.82 0.352,-1.362 v -13.207 c 2.488,3.629 4.824,6.579 7.012,8.879 2.187,2.282 4.25,4.078 6.203,5.39 1.953,1.32 3.887,2.23 5.801,2.72 1.921,0.51 3.843,0.77 5.796,0.77 0.879,0 1.868,-0.05 2.981,-0.16 1.113,-0.1 2.266,-0.28 3.477,-0.55 1.21,-0.27 2.304,-0.57 3.281,-0.91 0.976,-0.34 1.672,-0.67 2.07,-1.01 0.399,-0.33 0.676,-0.66 0.813,-0.96 0.125,-0.3 0.242,-0.69 0.347,-1.161 0.102,-0.469 0.168,-1.16 0.196,-2.07 0.043,-0.899 0.058,-2.129 0.058,-3.68" /><path
         id="path30"
         style="fill:#ffffff;fill-opacity:1;fill-rule:nonzero;stroke:none"
         d="m 489.297,954.41 c 0,4.899 -0.457,9.551 -1.375,13.91 -0.918,4.379 -2.426,8.219 -4.531,11.512 -2.102,3.289 -4.953,5.887 -8.547,7.816 -3.606,1.911 -8.074,2.872 -13.438,2.872 -4.961,0 -9.218,-0.872 -12.785,-2.622 -3.562,-1.757 -6.492,-4.226 -8.797,-7.418 -2.312,-3.191 -4.023,-6.968 -5.144,-11.351 -1.117,-4.367 -1.684,-9.149 -1.684,-14.32 0,-4.977 0.461,-9.649 1.379,-14.028 0.918,-4.371 2.441,-8.179 4.578,-11.441 2.141,-3.27 5.012,-5.86 8.606,-7.781 3.593,-1.911 8.078,-2.868 13.437,-2.868 4.883,0 9.133,0.868 12.727,2.618 3.59,1.75 6.543,4.211 8.855,7.363 2.305,3.168 4.004,6.937 5.09,11.297 1.082,4.383 1.629,9.191 1.629,14.441 z m 17.246,1.102 c 0,-7.391 -0.969,-14.211 -2.922,-20.43 -1.949,-6.223 -4.859,-11.582 -8.726,-16.082 -3.872,-4.52 -8.711,-8.031 -14.524,-10.551 -5.82,-2.519 -12.566,-3.777 -20.234,-3.777 -7.461,0 -13.977,1.098 -19.524,3.328 -5.547,2.219 -10.164,5.441 -13.867,9.68 -3.699,4.242 -6.453,9.379 -8.269,15.441 -1.817,6.051 -2.723,12.91 -2.723,20.57 0,7.411 0.957,14.207 2.867,20.43 1.914,6.219 4.817,11.59 8.684,16.098 3.867,4.511 8.691,8 14.472,10.491 5.782,2.49 12.547,3.74 20.286,3.74 7.457,0 13.96,-1.12 19.519,-3.33 5.547,-2.222 10.164,-5.448 13.867,-9.69 3.699,-4.239 6.477,-9.391 8.321,-15.43 1.855,-6.059 2.773,-12.879 2.773,-20.488" /><path
         id="path32"
         style="fill:#ffffff;fill-opacity:1;fill-rule:nonzero;stroke:none"
         d="m 551.555,1030.57 c 0,-3.9 -0.742,-6.55 -2.231,-7.97 -1.472,-1.41 -4.195,-2.12 -8.164,-2.12 -3.902,0 -6.558,0.69 -7.969,2.07 -1.414,1.38 -2.117,3.99 -2.117,7.82 0,3.9 0.723,6.56 2.168,7.97 1.446,1.42 4.153,2.12 8.113,2.12 3.977,0 6.665,-0.69 8.079,-2.07 1.406,-1.38 2.121,-3.98 2.121,-7.82 z m -1.926,-125.5 c 0,-6.73 -0.496,-12.16 -1.516,-16.289 -1.004,-4.14 -2.586,-7.621 -4.734,-10.449 -2.156,-2.82 -4.91,-4.953 -8.274,-6.402 -3.367,-1.45 -7.429,-2.168 -12.207,-2.168 -2.156,0 -3.98,0.129 -5.496,0.41 -1.511,0.258 -2.675,0.558 -3.484,0.91 -0.805,0.328 -1.359,0.719 -1.66,1.148 -0.305,0.442 -0.52,0.95 -0.656,1.508 -0.137,0.582 -0.223,1.16 -0.254,1.774 -0.032,0.609 -0.047,1.347 -0.047,2.218 0,1.211 0.047,2.25 0.144,3.129 0.11,0.871 0.274,1.582 0.508,2.121 0.235,0.54 0.508,0.918 0.813,1.149 0.3,0.25 0.679,0.359 1.152,0.359 0.406,0 1.199,-0.078 2.371,-0.25 1.184,-0.168 2.539,-0.25 4.094,-0.25 2.215,0 4.109,0.332 5.691,1 1.582,0.684 2.879,1.774 3.887,3.282 1.008,1.519 1.75,3.48 2.219,5.902 0.465,2.418 0.711,6.098 0.711,11 v 94.726 c 0,0.472 0.129,0.912 0.402,1.312 0.262,0.41 0.723,0.74 1.355,1.02 0.645,0.26 1.504,0.47 2.579,0.6 1.074,0.13 2.421,0.2 4.035,0.2 1.609,0 2.957,-0.07 4.031,-0.2 1.074,-0.13 1.934,-0.34 2.578,-0.6 0.637,-0.28 1.094,-0.61 1.359,-1.02 0.274,-0.4 0.399,-0.84 0.399,-1.312 V 905.07" /><path
         id="path34"
         style="fill:#ffffff;fill-opacity:1;fill-rule:nonzero;stroke:none"
         d="m 641.238,963.379 c 0.2,8.742 -1.746,15.609 -5.84,20.59 -4.089,4.972 -10.164,7.461 -18.218,7.461 -4.121,0 -7.746,-0.77 -10.864,-2.321 -3.113,-1.55 -5.711,-3.597 -7.808,-6.16 -2.102,-2.551 -3.723,-5.527 -4.875,-8.918 -1.153,-3.402 -1.797,-6.949 -1.934,-10.652 z m 16.75,-4.938 c 0,-2.632 -0.664,-4.492 -1.98,-5.601 -1.32,-1.11 -2.824,-1.668 -4.516,-1.668 h -59.793 c 0,-5.043 0.508,-9.582 1.524,-13.613 1.015,-4.039 2.707,-7.5 5.07,-10.399 2.359,-2.89 5.437,-5.109 9.227,-6.648 3.781,-1.551 8.41,-2.321 13.886,-2.321 4.324,0 8.172,0.348 11.555,1.059 3.379,0.699 6.309,1.488 8.769,2.359 2.469,0.879 4.493,1.672 6.083,2.379 1.589,0.703 2.792,1.063 3.605,1.063 0.469,0 0.887,-0.129 1.258,-0.36 0.383,-0.242 0.664,-0.589 0.871,-1.062 0.191,-0.457 0.348,-1.129 0.445,-1.969 0.11,-0.84 0.156,-1.859 0.156,-3.07 0,-0.871 -0.039,-1.641 -0.093,-2.27 -0.071,-0.64 -0.16,-1.211 -0.254,-1.718 -0.102,-0.5 -0.278,-0.961 -0.508,-1.364 -0.234,-0.398 -0.539,-0.789 -0.91,-1.156 -0.371,-0.371 -1.465,-0.973 -3.274,-1.812 -1.812,-0.84 -4.175,-1.661 -7.066,-2.481 -2.895,-0.809 -6.242,-1.527 -10.039,-2.16 -3.801,-0.649 -7.856,-0.957 -12.149,-0.957 -7.472,0 -14.015,1.039 -19.628,3.117 -5.618,2.082 -10.344,5.18 -14.172,9.281 -3.836,4.102 -6.731,9.25 -8.684,15.442 -1.941,6.187 -2.918,13.379 -2.918,21.59 0,7.808 1.008,14.82 3.027,21.039 2.012,6.218 4.922,11.488 8.719,15.839 3.801,4.329 8.391,7.661 13.774,9.98 5.379,2.32 11.406,3.49 18.062,3.49 7.133,0 13.195,-1.15 18.203,-3.43 5.012,-2.301 9.133,-5.372 12.367,-9.239 3.219,-3.871 5.594,-8.41 7.11,-13.609 1.512,-5.223 2.273,-10.793 2.273,-16.703 v -3.028" /><path
         id="path36"
         style="fill:#ffffff;fill-opacity:1;fill-rule:nonzero;stroke:none"
         d="m 748.586,922.93 c 0,-1.149 -0.039,-2.141 -0.109,-2.981 -0.071,-0.84 -0.184,-1.551 -0.352,-2.117 -0.164,-0.57 -0.371,-1.07 -0.605,-1.512 -0.235,-0.441 -0.774,-1.07 -1.614,-1.91 -0.84,-0.851 -2.273,-1.89 -4.285,-3.14 -2.019,-1.239 -4.285,-2.348 -6.816,-3.329 -2.52,-0.972 -5.262,-1.761 -8.223,-2.359 -2.961,-0.613 -6.016,-0.91 -9.18,-0.91 -6.523,0 -12.304,1.066 -17.343,3.219 -5.047,2.16 -9.266,5.308 -12.664,9.441 -3.403,4.137 -5.989,9.207 -7.766,15.227 -1.785,6.023 -2.676,12.972 -2.676,20.832 0,8.949 1.094,16.629 3.281,23.058 2.176,6.422 5.176,11.692 8.977,15.789 3.797,4.102 8.269,7.153 13.418,9.132 5.144,1.98 10.711,2.97 16.695,2.97 2.895,0 5.696,-0.27 8.418,-0.8 2.727,-0.54 5.238,-1.25 7.524,-2.12 2.285,-0.88 4.312,-1.889 6.101,-3.029 1.778,-1.141 3.074,-2.121 3.887,-2.93 0.801,-0.801 1.355,-1.441 1.66,-1.91 0.305,-0.469 0.559,-1.031 0.762,-1.66 0.195,-0.653 0.332,-1.371 0.398,-2.172 0.071,-0.809 0.102,-1.821 0.102,-3.028 0,-2.632 -0.305,-4.461 -0.91,-5.5 -0.606,-1.043 -1.348,-1.57 -2.215,-1.57 -1.008,0 -2.168,0.559 -3.481,1.668 -1.316,1.109 -2.976,2.332 -5,3.68 -2.007,1.351 -4.453,2.57 -7.312,3.679 -2.863,1.122 -6.238,1.672 -10.137,1.672 -8.008,0 -14.141,-3.082 -18.406,-9.23 -4.277,-6.16 -6.406,-15.078 -6.406,-26.789 0,-5.852 0.546,-10.981 1.66,-15.379 1.109,-4.41 2.742,-8.09 4.89,-11.051 2.149,-2.961 4.793,-5.16 7.918,-6.609 3.125,-1.442 6.711,-2.172 10.743,-2.172 3.839,0 7.199,0.609 10.089,1.82 2.891,1.211 5.403,2.539 7.52,3.981 2.117,1.449 3.894,2.757 5.351,3.941 1.446,1.168 2.571,1.77 3.379,1.77 0.469,0 0.871,-0.141 1.211,-0.411 0.332,-0.269 0.618,-0.73 0.852,-1.359 0.23,-0.641 0.406,-1.453 0.508,-2.422 0.093,-0.98 0.156,-2.14 0.156,-3.48" /><path
         id="path38"
         style="fill:#ffffff;fill-opacity:1;fill-rule:nonzero;stroke:none"
         d="m 817.883,915.762 c 0,-1.953 -0.129,-3.492 -0.403,-4.641 -0.273,-1.141 -0.671,-1.98 -1.21,-2.512 -0.54,-0.55 -1.348,-1.05 -2.422,-1.519 -1.075,-0.481 -2.305,-0.86 -3.68,-1.16 -1.379,-0.301 -2.844,-0.559 -4.387,-0.758 -1.551,-0.203 -3.093,-0.301 -4.648,-0.301 -4.707,0 -8.738,0.617 -12.102,1.859 -3.367,1.25 -6.121,3.141 -8.269,5.649 -2.157,2.519 -3.719,5.723 -4.699,9.582 -0.973,3.871 -1.454,8.43 -1.454,13.68 v 53.058 h -12.714 c -1.004,0 -1.817,0.539 -2.422,1.621 -0.606,1.078 -0.91,2.828 -0.91,5.25 0,1.27 0.082,2.352 0.253,3.219 0.168,0.883 0.383,1.601 0.657,2.171 0.261,0.58 0.617,0.98 1.054,1.21 0.442,0.23 0.926,0.36 1.465,0.36 h 12.617 v 21.58 c 0,0.47 0.11,0.91 0.352,1.32 0.234,0.4 0.664,0.75 1.309,1.06 0.632,0.3 1.496,0.51 2.57,0.65 1.07,0.14 2.422,0.21 4.043,0.21 1.68,0 3.055,-0.07 4.129,-0.21 1.074,-0.14 1.914,-0.35 2.519,-0.65 0.606,-0.31 1.043,-0.66 1.321,-1.06 0.261,-0.41 0.398,-0.85 0.398,-1.32 v -21.58 h 23.301 c 0.547,0 1.015,-0.13 1.418,-0.36 0.398,-0.23 0.761,-0.63 1.062,-1.21 0.305,-0.57 0.52,-1.288 0.657,-2.171 0.125,-0.867 0.195,-1.949 0.195,-3.219 0,-2.422 -0.305,-4.172 -0.91,-5.25 -0.606,-1.082 -1.407,-1.621 -2.422,-1.621 H 791.25 v -50.64 c 0,-6.25 0.93,-10.977 2.773,-14.168 1.856,-3.192 5.165,-4.801 9.942,-4.801 1.543,0 2.922,0.16 4.133,0.461 1.211,0.301 2.285,0.621 3.23,0.961 0.938,0.328 1.746,0.648 2.422,0.957 0.676,0.301 1.277,0.453 1.816,0.453 0.332,0 0.657,-0.082 0.957,-0.262 0.301,-0.16 0.54,-0.488 0.704,-0.961 0.168,-0.461 0.324,-1.097 0.461,-1.91 0.125,-0.809 0.195,-1.82 0.195,-3.027" /><path
         id="path40"
         style="fill:#ffffff;fill-opacity:1;fill-rule:nonzero;stroke:none"
         d="m 970.145,972.969 c -4.508,5.582 -8.868,9.832 -13.067,12.75 -4.207,2.929 -8.594,4.402 -13.16,4.402 -4.238,0 -7.844,-1.012 -10.805,-3.031 -2.957,-2.02 -5.359,-4.68 -7.207,-7.969 -1.851,-3.301 -3.203,-7.031 -4.043,-11.199 -0.84,-4.172 -1.258,-8.41 -1.258,-12.711 0,-4.57 0.352,-9.051 1.067,-13.422 0.699,-4.367 1.933,-8.25 3.68,-11.648 1.75,-3.403 4.062,-6.121 6.961,-8.18 2.89,-2.051 6.527,-3.07 10.89,-3.07 2.227,0 4.356,0.3 6.406,0.91 2.051,0.597 4.161,1.621 6.309,3.019 2.148,1.418 4.402,3.25 6.758,5.5 2.351,2.262 4.844,5.032 7.469,8.328 z m 16.75,-63.867 c 0,-0.532 -0.118,-1 -0.364,-1.403 -0.23,-0.41 -0.633,-0.73 -1.211,-0.969 -0.562,-0.23 -1.328,-0.41 -2.261,-0.55 -0.942,-0.129 -2.09,-0.2 -3.43,-0.2 -1.414,0 -2.586,0.071 -3.535,0.2 -0.938,0.14 -1.707,0.32 -2.317,0.55 -0.601,0.239 -1.043,0.559 -1.316,0.969 -0.266,0.403 -0.398,0.871 -0.398,1.403 v 12.019 c -4.778,-5.191 -9.739,-9.223 -14.883,-12.109 -5.149,-2.891 -10.785,-4.34 -16.899,-4.34 -6.66,0 -12.343,1.289 -17.051,3.879 -4.707,2.578 -8.523,6.09 -11.453,10.488 -2.922,4.41 -5.058,9.582 -6.406,15.543 -1.34,5.949 -2.012,12.219 -2.012,18.809 0,7.8 0.84,14.847 2.52,21.14 1.68,6.289 4.172,11.649 7.461,16.098 3.301,4.43 7.383,7.851 12.265,10.231 4.875,2.38 10.508,3.59 16.895,3.59 5.313,0 10.176,-1.17 14.578,-3.49 4.406,-2.319 8.762,-5.73 13.067,-10.241 v 52.771 c 0,0.47 0.121,0.92 0.351,1.36 0.234,0.44 0.688,0.77 1.359,1.01 0.672,0.24 1.536,0.43 2.579,0.61 1.035,0.16 2.375,0.24 3.984,0.24 1.68,0 3.059,-0.08 4.133,-0.24 1.07,-0.18 1.922,-0.37 2.527,-0.61 0.606,-0.24 1.055,-0.57 1.36,-1.01 0.3,-0.44 0.457,-0.89 0.457,-1.36 V 909.102" /><path
         id="path42"
         style="fill:#ffffff;fill-opacity:1;fill-rule:nonzero;stroke:none"
         d="m 1078.4,963.379 c 0.19,8.742 -1.75,15.609 -5.84,20.59 -4.09,4.972 -10.17,7.461 -18.22,7.461 -4.13,0 -7.75,-0.77 -10.86,-2.321 -3.12,-1.55 -5.72,-3.597 -7.82,-6.16 -2.1,-2.551 -3.72,-5.527 -4.87,-8.918 -1.15,-3.402 -1.8,-6.949 -1.93,-10.652 z m 16.75,-4.938 c 0,-2.632 -0.67,-4.492 -1.99,-5.601 -1.31,-1.11 -2.82,-1.668 -4.51,-1.668 h -59.79 c 0,-5.043 0.51,-9.582 1.52,-13.613 1.02,-4.039 2.71,-7.5 5.07,-10.399 2.36,-2.89 5.44,-5.109 9.23,-6.648 3.78,-1.551 8.41,-2.321 13.88,-2.321 4.33,0 8.18,0.348 11.56,1.059 3.38,0.699 6.31,1.488 8.77,2.359 2.47,0.879 4.49,1.672 6.08,2.379 1.59,0.703 2.79,1.063 3.6,1.063 0.47,0 0.89,-0.129 1.26,-0.36 0.38,-0.242 0.67,-0.589 0.87,-1.062 0.2,-0.457 0.35,-1.129 0.45,-1.969 0.11,-0.84 0.16,-1.859 0.16,-3.07 0,-0.871 -0.04,-1.641 -0.1,-2.27 -0.07,-0.64 -0.16,-1.211 -0.25,-1.718 -0.1,-0.5 -0.28,-0.961 -0.51,-1.364 -0.24,-0.398 -0.54,-0.789 -0.91,-1.156 -0.37,-0.371 -1.46,-0.973 -3.27,-1.812 -1.82,-0.84 -4.18,-1.661 -7.07,-2.481 -2.89,-0.809 -6.24,-1.527 -10.04,-2.16 -3.8,-0.649 -7.85,-0.957 -12.15,-0.957 -7.47,0 -14.01,1.039 -19.63,3.117 -5.61,2.082 -10.34,5.18 -14.17,9.281 -3.83,4.102 -6.73,9.25 -8.68,15.442 -1.94,6.187 -2.92,13.379 -2.92,21.59 0,7.808 1.01,14.82 3.03,21.039 2.01,6.218 4.92,11.488 8.72,15.839 3.8,4.329 8.39,7.661 13.77,9.98 5.38,2.32 11.41,3.49 18.07,3.49 7.12,0 13.19,-1.15 18.2,-3.43 5.01,-2.301 9.13,-5.372 12.36,-9.239 3.22,-3.871 5.6,-8.41 7.11,-13.609 1.51,-5.223 2.28,-10.793 2.28,-16.703 v -3.028" /><path
         id="path44"
         style="fill:#ffffff;fill-opacity:1;fill-rule:nonzero;stroke:none"
         d="m 1194.1,1000.11 c 0,-0.27 -0.02,-0.559 -0.05,-0.86 -0.04,-0.301 -0.09,-0.629 -0.15,-0.961 -0.07,-0.34 -0.15,-0.707 -0.26,-1.109 -0.1,-0.399 -0.21,-0.84 -0.35,-1.309 l -30.97,-86.262 c -0.27,-0.738 -0.62,-1.347 -1.06,-1.82 -0.44,-0.457 -1.09,-0.84 -1.96,-1.109 -0.88,-0.258 -2,-0.45 -3.33,-0.551 -1.35,-0.098 -3.03,-0.149 -5.05,-0.149 -2.01,0 -3.7,0.071 -5.04,0.2 -1.35,0.14 -2.44,0.34 -3.28,0.609 -0.84,0.262 -1.5,0.633 -1.97,1.102 -0.47,0.468 -0.84,1.05 -1.11,1.718 l -30.87,86.262 c -0.27,0.801 -0.49,1.508 -0.66,2.117 -0.17,0.614 -0.27,1.051 -0.3,1.364 -0.03,0.296 -0.05,0.546 -0.05,0.758 0,0.54 0.13,1.01 0.41,1.41 0.26,0.41 0.71,0.72 1.35,0.95 0.64,0.24 1.48,0.39 2.52,0.46 1.05,0.07 2.35,0.1 3.89,0.1 1.95,0 3.52,-0.05 4.69,-0.15 1.18,-0.1 2.09,-0.29 2.72,-0.55 0.65,-0.28 1.12,-0.61 1.42,-1.01 0.3,-0.41 0.58,-0.91 0.86,-1.511 l 25.62,-74.868 0.4,-1.211 0.31,1.211 25.32,74.868 c 0.14,0.601 0.37,1.101 0.7,1.511 0.34,0.4 0.83,0.73 1.47,1.01 0.64,0.26 1.51,0.45 2.62,0.55 1.11,0.1 2.57,0.15 4.39,0.15 1.55,0 2.82,-0.03 3.84,-0.1 1,-0.07 1.79,-0.23 2.37,-0.51 0.57,-0.26 0.97,-0.58 1.21,-0.95 0.23,-0.37 0.35,-0.82 0.35,-1.36" /><path
         id="path46"
         style="fill:#ffffff;fill-opacity:1;fill-rule:nonzero;stroke:none"
         d="m 1271.84,963.379 c 0.19,8.742 -1.75,15.609 -5.84,20.59 -4.1,4.972 -10.17,7.461 -18.23,7.461 -4.12,0 -7.74,-0.77 -10.86,-2.321 -3.11,-1.55 -5.71,-3.597 -7.81,-6.16 -2.1,-2.551 -3.72,-5.527 -4.87,-8.918 -1.15,-3.402 -1.8,-6.949 -1.94,-10.652 z m 16.74,-4.938 c 0,-2.632 -0.66,-4.492 -1.98,-5.601 -1.32,-1.11 -2.82,-1.668 -4.51,-1.668 h -59.8 c 0,-5.043 0.51,-9.582 1.53,-13.613 1.01,-4.039 2.7,-7.5 5.07,-10.399 2.36,-2.89 5.44,-5.109 9.23,-6.648 3.77,-1.551 8.4,-2.321 13.88,-2.321 4.33,0 8.18,0.348 11.55,1.059 3.38,0.699 6.31,1.488 8.77,2.359 2.47,0.879 4.5,1.672 6.09,2.379 1.59,0.703 2.79,1.063 3.6,1.063 0.47,0 0.89,-0.129 1.26,-0.36 0.38,-0.242 0.67,-0.589 0.87,-1.062 0.2,-0.457 0.35,-1.129 0.45,-1.969 0.11,-0.84 0.16,-1.859 0.16,-3.07 0,-0.871 -0.04,-1.641 -0.1,-2.27 -0.07,-0.64 -0.16,-1.211 -0.26,-1.718 -0.09,-0.5 -0.27,-0.961 -0.5,-1.364 -0.24,-0.398 -0.54,-0.789 -0.91,-1.156 -0.37,-0.371 -1.47,-0.973 -3.27,-1.812 -1.82,-0.84 -4.18,-1.661 -7.07,-2.481 -2.89,-0.809 -6.24,-1.527 -10.04,-2.16 -3.8,-0.649 -7.85,-0.957 -12.15,-0.957 -7.47,0 -14.01,1.039 -19.63,3.117 -5.61,2.082 -10.34,5.18 -14.17,9.281 -3.84,4.102 -6.73,9.25 -8.68,15.442 -1.94,6.187 -2.92,13.379 -2.92,21.59 0,7.808 1,14.82 3.03,21.039 2.01,6.218 4.92,11.488 8.72,15.839 3.8,4.329 8.39,7.661 13.77,9.98 5.38,2.32 11.4,3.49 18.06,3.49 7.13,0 13.2,-1.15 18.21,-3.43 5.01,-2.301 9.13,-5.372 12.36,-9.239 3.22,-3.871 5.59,-8.41 7.11,-13.609 1.51,-5.223 2.27,-10.793 2.27,-16.703 v -3.028" /><path
         id="path48"
         style="fill:#ffffff;fill-opacity:1;fill-rule:nonzero;stroke:none"
         d="m 1330.55,909.102 c 0,-0.532 -0.14,-0.981 -0.4,-1.352 -0.28,-0.379 -0.71,-0.699 -1.31,-0.961 -0.61,-0.269 -1.46,-0.469 -2.53,-0.609 -1.08,-0.129 -2.45,-0.2 -4.13,-0.2 -1.62,0 -2.96,0.071 -4.05,0.2 -1.07,0.14 -1.93,0.34 -2.56,0.609 -0.64,0.262 -1.08,0.582 -1.31,0.961 -0.24,0.371 -0.35,0.82 -0.35,1.352 v 134.788 c 0,0.54 0.11,1 0.35,1.41 0.23,0.4 0.67,0.74 1.31,1.01 0.63,0.27 1.49,0.47 2.56,0.61 1.09,0.13 2.43,0.2 4.05,0.2 1.68,0 3.05,-0.07 4.13,-0.2 1.07,-0.14 1.92,-0.34 2.53,-0.61 0.6,-0.27 1.03,-0.61 1.31,-1.01 0.26,-0.41 0.4,-0.87 0.4,-1.41 V 909.102" /><path
         id="path50"
         style="fill:#ffffff;fill-opacity:1;fill-rule:nonzero;stroke:none"
         d="m 1428.52,954.41 c 0,4.899 -0.46,9.551 -1.38,13.91 -0.92,4.379 -2.42,8.219 -4.53,11.512 -2.1,3.289 -4.95,5.887 -8.55,7.816 -3.6,1.911 -8.07,2.872 -13.43,2.872 -4.97,0 -9.22,-0.872 -12.79,-2.622 -3.56,-1.757 -6.49,-4.226 -8.8,-7.418 -2.31,-3.191 -4.02,-6.968 -5.14,-11.351 -1.12,-4.367 -1.68,-9.149 -1.68,-14.32 0,-4.977 0.46,-9.649 1.37,-14.028 0.92,-4.371 2.45,-8.179 4.58,-11.441 2.14,-3.27 5.01,-5.86 8.61,-7.781 3.59,-1.911 8.07,-2.868 13.43,-2.868 4.89,0 9.14,0.868 12.73,2.618 3.59,1.75 6.54,4.211 8.86,7.363 2.3,3.168 4,6.937 5.08,11.297 1.09,4.383 1.64,9.191 1.64,14.441 z m 17.24,1.102 c 0,-7.391 -0.97,-14.211 -2.92,-20.43 -1.95,-6.223 -4.86,-11.582 -8.73,-16.082 -3.87,-4.52 -8.71,-8.031 -14.52,-10.551 -5.82,-2.519 -12.57,-3.777 -20.23,-3.777 -7.47,0 -13.98,1.098 -19.53,3.328 -5.54,2.219 -10.16,5.441 -13.86,9.68 -3.7,4.242 -6.46,9.379 -8.27,15.441 -1.82,6.051 -2.73,12.91 -2.73,20.57 0,7.411 0.96,14.207 2.87,20.43 1.92,6.219 4.82,11.59 8.68,16.098 3.87,4.511 8.69,8 14.48,10.491 5.78,2.49 12.54,3.74 20.28,3.74 7.46,0 13.96,-1.12 19.52,-3.33 5.55,-2.222 10.17,-5.448 13.87,-9.69 3.7,-4.239 6.47,-9.391 8.32,-15.43 1.85,-6.059 2.77,-12.879 2.77,-20.488" /><path
         id="path52"
         style="fill:#ffffff;fill-opacity:1;fill-rule:nonzero;stroke:none"
         d="m 1536.56,954 c 0,4.641 -0.36,9.129 -1.06,13.469 -0.71,4.34 -1.94,8.191 -3.65,11.551 -1.73,3.359 -4.05,6.05 -6.96,8.07 -2.91,2.019 -6.53,3.031 -10.87,3.031 -2.15,0 -4.29,-0.32 -6.38,-0.961 -2.1,-0.64 -4.24,-1.648 -6.4,-3.031 -2.17,-1.367 -4.43,-3.188 -6.81,-5.438 -2.36,-2.261 -4.87,-5.031 -7.51,-8.32 v -36.133 c 4.6,-5.578 8.97,-9.847 13.1,-12.808 4.13,-2.961 8.46,-4.43 12.99,-4.43 4.2,0 7.8,1 10.81,3.02 3.02,2.019 5.45,4.71 7.31,8.07 1.86,3.359 3.24,7.129 4.11,11.301 0.88,4.168 1.32,8.379 1.32,12.609 z m 17.25,1.922 c 0,-7.942 -0.85,-15.07 -2.57,-21.391 -1.72,-6.332 -4.24,-11.691 -7.57,-16.09 -3.33,-4.402 -7.45,-7.8 -12.35,-10.203 -4.91,-2.379 -10.53,-3.566 -16.86,-3.566 -2.68,0 -5.17,0.258 -7.46,0.797 -2.28,0.551 -4.52,1.383 -6.71,2.531 -2.18,1.141 -4.35,2.59 -6.5,4.34 -2.16,1.742 -4.44,3.789 -6.87,6.148 V 873.09 c 0,-0.539 -0.13,-1.008 -0.4,-1.41 -0.27,-0.41 -0.7,-0.739 -1.31,-1.008 -0.6,-0.274 -1.45,-0.473 -2.52,-0.613 -1.08,-0.129 -2.46,-0.188 -4.14,-0.188 -1.62,0 -2.95,0.059 -4.04,0.188 -1.07,0.14 -1.93,0.339 -2.57,0.613 -0.63,0.269 -1.07,0.598 -1.31,1.008 -0.23,0.402 -0.35,0.871 -0.35,1.41 v 126.808 c 0,0.612 0.1,1.102 0.31,1.472 0.19,0.37 0.6,0.68 1.21,0.96 0.6,0.26 1.37,0.45 2.31,0.55 0.95,0.1 2.09,0.15 3.43,0.15 1.42,0 2.58,-0.05 3.49,-0.15 0.9,-0.1 1.66,-0.29 2.26,-0.55 0.61,-0.28 1.03,-0.59 1.26,-0.96 0.24,-0.37 0.36,-0.86 0.36,-1.472 v -12.199 c 2.76,2.821 5.41,5.281 7.97,7.36 2.55,2.082 5.13,3.82 7.72,5.201 2.58,1.37 5.24,2.42 7.96,3.12 2.73,0.71 5.6,1.07 8.63,1.07 6.59,0 12.2,-1.28 16.85,-3.84 4.64,-2.559 8.42,-6.059 11.35,-10.489 2.92,-4.441 5.06,-9.601 6.41,-15.492 1.34,-5.891 2.01,-12.117 2.01,-18.707" /><path
         id="path54"
         style="fill:#ffffff;fill-opacity:1;fill-rule:nonzero;stroke:none"
         d="m 1713.52,909.102 c 0,-0.532 -0.14,-0.981 -0.4,-1.352 -0.28,-0.379 -0.71,-0.699 -1.31,-0.961 -0.61,-0.269 -1.46,-0.469 -2.53,-0.609 -1.08,-0.129 -2.42,-0.2 -4.04,-0.2 -1.68,0 -3.05,0.071 -4.14,0.2 -1.07,0.14 -1.93,0.34 -2.56,0.609 -0.65,0.262 -1.1,0.582 -1.36,0.961 -0.28,0.371 -0.41,0.82 -0.41,1.352 v 55.187 c 0,3.84 -0.33,7.332 -1.01,10.5 -0.67,3.152 -1.75,5.883 -3.23,8.16 -1.48,2.289 -3.36,4.039 -5.65,5.25 -2.28,1.223 -4.98,1.821 -8.07,1.821 -3.83,0 -7.69,-1.481 -11.54,-4.438 -3.88,-2.961 -8.13,-7.301 -12.77,-13.023 v -63.457 c 0,-0.532 -0.13,-0.981 -0.41,-1.352 -0.26,-0.379 -0.72,-0.699 -1.36,-0.961 -0.64,-0.269 -1.49,-0.469 -2.57,-0.609 -1.08,-0.129 -2.42,-0.2 -4.04,-0.2 -1.54,0 -2.87,0.071 -3.98,0.2 -1.1,0.14 -1.98,0.34 -2.62,0.609 -0.64,0.262 -1.08,0.582 -1.32,0.961 -0.23,0.371 -0.35,0.82 -0.35,1.352 v 55.187 c 0,3.84 -0.37,7.332 -1.11,10.5 -0.73,3.152 -1.85,5.883 -3.32,8.16 -1.49,2.289 -3.35,4.039 -5.61,5.25 -2.25,1.223 -4.92,1.821 -8.02,1.821 -3.83,0 -7.7,-1.481 -11.6,-4.438 -3.9,-2.961 -8.14,-7.301 -12.71,-13.023 v -63.457 c 0,-0.532 -0.14,-0.981 -0.4,-1.352 -0.28,-0.379 -0.7,-0.699 -1.31,-0.961 -0.61,-0.269 -1.46,-0.469 -2.53,-0.609 -1.07,-0.129 -2.45,-0.2 -4.13,-0.2 -1.62,0 -2.96,0.071 -4.04,0.2 -1.08,0.14 -1.94,0.34 -2.57,0.609 -0.64,0.262 -1.08,0.582 -1.31,0.961 -0.23,0.371 -0.35,0.82 -0.35,1.352 v 90.796 c 0,0.542 0.1,0.992 0.3,1.362 0.2,0.37 0.61,0.71 1.21,1.02 0.61,0.3 1.38,0.5 2.32,0.6 0.94,0.1 2.18,0.15 3.73,0.15 1.48,0 2.71,-0.05 3.68,-0.15 0.97,-0.1 1.74,-0.3 2.27,-0.6 0.54,-0.31 0.93,-0.65 1.17,-1.02 0.23,-0.37 0.35,-0.82 0.35,-1.362 v -12 c 5.1,5.723 10.07,9.903 14.88,12.562 4.8,2.66 9.67,3.99 14.57,3.99 3.77,0 7.15,-0.44 10.15,-1.31 2.99,-0.88 5.62,-2.11 7.92,-3.691 2.28,-1.578 4.24,-3.461 5.85,-5.648 1.61,-2.192 2.96,-4.629 4.03,-7.313 3.03,3.293 5.9,6.082 8.62,8.371 2.73,2.282 5.35,4.141 7.87,5.551 2.52,1.41 4.98,2.43 7.37,3.08 2.39,0.63 4.79,0.96 7.21,0.96 5.85,0 10.77,-1.03 14.73,-3.08 3.97,-2.05 7.18,-4.8 9.64,-8.222 2.45,-3.429 4.2,-7.449 5.24,-12.058 1.05,-4.61 1.57,-9.469 1.57,-14.578 v -57.41" /><path
         id="path56"
         style="fill:#ffffff;fill-opacity:1;fill-rule:nonzero;stroke:none"
         d="m 1804.62,963.379 c 0.19,8.742 -1.75,15.609 -5.84,20.59 -4.09,4.972 -10.17,7.461 -18.22,7.461 -4.12,0 -7.75,-0.77 -10.86,-2.321 -3.12,-1.55 -5.72,-3.597 -7.82,-6.16 -2.09,-2.551 -3.72,-5.527 -4.87,-8.918 -1.15,-3.402 -1.8,-6.949 -1.93,-10.652 z m 16.75,-4.938 c 0,-2.632 -0.67,-4.492 -1.99,-5.601 -1.31,-1.11 -2.82,-1.668 -4.51,-1.668 h -59.79 c 0,-5.043 0.51,-9.582 1.52,-13.613 1.02,-4.039 2.71,-7.5 5.07,-10.399 2.36,-2.89 5.44,-5.109 9.23,-6.648 3.78,-1.551 8.41,-2.321 13.89,-2.321 4.32,0 8.17,0.348 11.55,1.059 3.38,0.699 6.31,1.488 8.77,2.359 2.47,0.879 4.49,1.672 6.08,2.379 1.59,0.703 2.79,1.063 3.6,1.063 0.47,0 0.89,-0.129 1.26,-0.36 0.39,-0.242 0.67,-0.589 0.87,-1.062 0.2,-0.457 0.36,-1.129 0.45,-1.969 0.11,-0.84 0.16,-1.859 0.16,-3.07 0,-0.871 -0.04,-1.641 -0.1,-2.27 -0.07,-0.64 -0.15,-1.211 -0.25,-1.718 -0.1,-0.5 -0.28,-0.961 -0.51,-1.364 -0.23,-0.398 -0.54,-0.789 -0.91,-1.156 -0.37,-0.371 -1.46,-0.973 -3.27,-1.812 -1.82,-0.84 -4.18,-1.661 -7.07,-2.481 -2.89,-0.809 -6.24,-1.527 -10.04,-2.16 -3.8,-0.649 -7.85,-0.957 -12.15,-0.957 -7.47,0 -14.01,1.039 -19.63,3.117 -5.61,2.082 -10.34,5.18 -14.17,9.281 -3.83,4.102 -6.72,9.25 -8.68,15.442 -1.94,6.187 -2.92,13.379 -2.92,21.59 0,7.808 1.01,14.82 3.03,21.039 2.01,6.218 4.92,11.488 8.72,15.839 3.8,4.329 8.39,7.661 13.77,9.98 5.38,2.32 11.41,3.49 18.07,3.49 7.12,0 13.19,-1.15 18.2,-3.43 5.01,-2.301 9.13,-5.372 12.36,-9.239 3.23,-3.871 5.6,-8.41 7.11,-13.609 1.52,-5.223 2.28,-10.793 2.28,-16.703 v -3.028" /><path
         id="path58"
         style="fill:#ffffff;fill-opacity:1;fill-rule:nonzero;stroke:none"
         d="m 1924.87,909.102 c 0,-0.532 -0.13,-0.981 -0.4,-1.352 -0.27,-0.379 -0.71,-0.699 -1.32,-0.961 -0.6,-0.269 -1.44,-0.469 -2.52,-0.609 -1.07,-0.129 -2.42,-0.2 -4.03,-0.2 -1.68,0 -3.06,0.071 -4.14,0.2 -1.07,0.14 -1.91,0.34 -2.52,0.609 -0.6,0.262 -1.04,0.582 -1.31,0.961 -0.27,0.371 -0.41,0.82 -0.41,1.352 v 53.179 c 0,5.168 -0.4,9.34 -1.21,12.508 -0.8,3.152 -1.98,5.883 -3.52,8.16 -1.56,2.289 -3.56,4.039 -6.01,5.25 -2.45,1.223 -5.29,1.821 -8.52,1.821 -4.17,0 -8.34,-1.481 -12.51,-4.438 -4.17,-2.961 -8.55,-7.301 -13.12,-13.023 v -63.457 c 0,-0.532 -0.14,-0.981 -0.4,-1.352 -0.27,-0.379 -0.7,-0.699 -1.31,-0.961 -0.6,-0.269 -1.45,-0.469 -2.53,-0.609 -1.07,-0.129 -2.45,-0.2 -4.13,-0.2 -1.62,0 -2.96,0.071 -4.04,0.2 -1.08,0.14 -1.94,0.34 -2.57,0.609 -0.64,0.262 -1.07,0.582 -1.31,0.961 -0.23,0.371 -0.35,0.82 -0.35,1.352 v 90.796 c 0,0.542 0.1,0.992 0.3,1.362 0.2,0.37 0.61,0.71 1.21,1.02 0.61,0.3 1.38,0.5 2.32,0.6 0.94,0.1 2.19,0.15 3.73,0.15 1.48,0 2.71,-0.05 3.68,-0.15 0.98,-0.1 1.74,-0.3 2.28,-0.6 0.53,-0.31 0.92,-0.65 1.16,-1.02 0.23,-0.37 0.35,-0.82 0.35,-1.362 v -12 c 5.11,5.723 10.2,9.903 15.28,12.562 5.08,2.66 10.21,3.99 15.38,3.99 6.06,0 11.16,-1.03 15.3,-3.08 4.13,-2.05 7.48,-4.8 10.03,-8.222 2.55,-3.429 4.39,-7.449 5.49,-12.058 1.12,-4.61 1.67,-10.141 1.67,-16.602 v -55.386" /><path
         id="path60"
         style="fill:#ffffff;fill-opacity:1;fill-rule:nonzero;stroke:none"
         d="m 2000.59,915.762 c 0,-1.953 -0.13,-3.492 -0.4,-4.641 -0.28,-1.141 -0.68,-1.98 -1.22,-2.512 -0.53,-0.55 -1.34,-1.05 -2.42,-1.519 -1.07,-0.481 -2.3,-0.86 -3.68,-1.16 -1.38,-0.301 -2.84,-0.559 -4.38,-0.758 -1.56,-0.203 -3.1,-0.301 -4.65,-0.301 -4.71,0 -8.74,0.617 -12.1,1.859 -3.37,1.25 -6.12,3.141 -8.27,5.649 -2.16,2.519 -3.72,5.723 -4.7,9.582 -0.98,3.871 -1.46,8.43 -1.46,13.68 v 53.058 h -12.71 c -1.01,0 -1.82,0.539 -2.42,1.621 -0.61,1.078 -0.91,2.828 -0.91,5.25 0,1.27 0.08,2.352 0.25,3.219 0.17,0.883 0.38,1.601 0.66,2.171 0.26,0.58 0.61,0.98 1.05,1.21 0.44,0.23 0.93,0.36 1.47,0.36 h 12.61 v 21.58 c 0,0.47 0.11,0.91 0.36,1.32 0.23,0.4 0.66,0.75 1.3,1.06 0.64,0.3 1.5,0.51 2.57,0.65 1.08,0.14 2.42,0.21 4.05,0.21 1.68,0 3.05,-0.07 4.13,-0.21 1.07,-0.14 1.91,-0.35 2.52,-0.65 0.6,-0.31 1.04,-0.66 1.31,-1.06 0.27,-0.41 0.41,-0.85 0.41,-1.32 v -21.58 h 23.3 c 0.54,0 1.01,-0.13 1.41,-0.36 0.4,-0.23 0.76,-0.63 1.07,-1.21 0.3,-0.57 0.51,-1.288 0.65,-2.171 0.13,-0.867 0.2,-1.949 0.2,-3.219 0,-2.422 -0.31,-4.172 -0.91,-5.25 -0.61,-1.082 -1.41,-1.621 -2.42,-1.621 h -23.3 v -50.64 c 0,-6.25 0.92,-10.977 2.77,-14.168 1.85,-3.192 5.16,-4.801 9.94,-4.801 1.54,0 2.92,0.16 4.13,0.461 1.21,0.301 2.29,0.621 3.23,0.961 0.94,0.328 1.75,0.648 2.43,0.957 0.67,0.301 1.27,0.453 1.81,0.453 0.33,0 0.66,-0.082 0.96,-0.262 0.3,-0.16 0.54,-0.488 0.7,-0.961 0.17,-0.461 0.32,-1.097 0.46,-1.91 0.13,-0.809 0.2,-1.82 0.2,-3.027" /><path
         id="path62"
         style="fill:#ffffff;fill-opacity:1;fill-rule:nonzero;stroke:none"
         d="m 1609.88,723.922 c 0,6.187 -1.7,10.988 -5.09,14.488 -3.38,3.461 -8.23,5.192 -14.45,5.192 -3.25,0 -6.05,-0.551 -8.44,-1.633 -2.39,-1.071 -4.36,-2.547 -5.95,-4.418 -1.59,-1.903 -2.77,-4.051 -3.53,-6.5 -0.76,-2.461 -1.17,-5.051 -1.17,-7.719 0,-5.98 1.69,-10.723 5.12,-14.152 3.39,-3.418 8.12,-5.121 14.25,-5.121 3.32,0 6.16,0.523 8.58,1.562 2.42,1.039 4.42,2.488 6.01,4.32 1.56,1.868 2.77,3.981 3.53,6.399 0.76,2.422 1.14,4.949 1.14,7.582 z M 1618.29,652 c 0,3.879 -1.63,6.891 -4.84,9.039 -3.19,2.109 -7.47,3.211 -12.94,3.352 l -23.52,0.828 c -2.15,-1.688 -3.9,-3.278 -5.29,-4.809 -1.35,-1.519 -2.46,-2.941 -3.29,-4.32 -0.79,-1.379 -1.35,-2.77 -1.66,-4.09 -0.28,-1.34 -0.45,-2.719 -0.45,-4.148 0,-4.352 2.25,-7.672 6.68,-9.922 4.42,-2.239 10.61,-3.391 18.53,-3.391 5.05,0 9.27,0.481 12.67,1.449 3.39,0.973 6.15,2.282 8.23,3.91 2.07,1.602 3.6,3.461 4.49,5.532 0.9,2.082 1.39,4.261 1.39,6.57 z m 17.64,95.809 c 0,-2.34 -0.34,-4.039 -0.97,-5.071 -0.62,-1.039 -1.45,-1.566 -2.49,-1.566 h -13.01 c 2.36,-2.41 4.02,-5.07 4.95,-8.012 0.93,-2.941 1.42,-5.988 1.42,-9.129 0,-5.269 -0.83,-9.902 -2.53,-13.91 -1.69,-4.051 -4.08,-7.473 -7.23,-10.269 -3.11,-2.782 -6.84,-4.922 -11.13,-6.403 -4.3,-1.5 -9.06,-2.219 -14.32,-2.219 -3.71,0 -7.2,0.481 -10.52,1.461 -3.35,0.989 -5.95,2.2 -7.75,3.7 -1.21,-1.211 -2.21,-2.602 -2.97,-4.153 -0.77,-1.527 -1.18,-3.316 -1.18,-5.328 0,-2.359 1.11,-4.328 3.32,-5.84 2.15,-1.57 5.05,-2.429 8.72,-2.531 l 23.7,-1.039 c 4.53,-0.109 8.64,-0.73 12.41,-1.871 3.74,-1.109 7.02,-2.66 9.79,-4.738 2.74,-2.039 4.88,-4.559 6.47,-7.539 1.52,-3.012 2.28,-6.461 2.28,-10.454 0,-4.179 -0.87,-8.117 -2.62,-11.886 -1.73,-3.774 -4.4,-7.09 -7.99,-9.961 -3.61,-2.84 -8.21,-5.09 -13.81,-6.75 -5.53,-1.66 -12.17,-2.492 -19.75,-2.492 -7.33,0 -13.59,0.621 -18.71,1.871 -5.15,1.242 -9.37,2.941 -12.66,5.121 -3.32,2.14 -5.68,4.699 -7.16,7.719 -1.49,2.96 -2.25,6.218 -2.25,9.71 0,2.219 0.27,4.399 0.83,6.469 0.56,2.082 1.39,4.082 2.49,5.942 1.11,1.879 2.49,3.679 4.11,5.398 1.63,1.731 3.57,3.43 5.72,5.09 -3.32,1.691 -5.75,3.801 -7.34,6.359 -1.59,2.563 -2.35,5.332 -2.35,8.274 0,4.109 0.83,7.777 2.53,11 1.69,3.25 3.77,6.117 6.26,8.679 -2.08,2.489 -3.74,5.289 -4.98,8.438 -1.18,3.109 -1.8,6.883 -1.8,11.34 0,5.16 0.9,9.832 2.63,13.91 1.73,4.121 4.15,7.582 7.25,10.41 3.12,2.801 6.82,4.981 11.15,6.5 4.35,1.531 9.06,2.25 14.18,2.25 2.77,0 5.33,-0.141 7.71,-0.449 2.39,-0.27 4.64,-0.719 6.71,-1.238 h 27.43 c 1.17,0 2,-0.563 2.6,-1.661 0.58,-1.109 0.86,-2.839 0.86,-5.132 z m -106.15,-86.637 c 0,-0.551 -0.14,-1 -0.42,-1.34 -0.24,-0.383 -0.73,-0.703 -1.31,-0.973 -0.59,-0.277 -1.42,-0.488 -2.53,-0.629 -1.07,-0.128 -2.42,-0.171 -4.02,-0.171 -1.69,0 -3.07,0.043 -4.15,0.171 -1.06,0.141 -1.93,0.352 -2.52,0.629 -0.58,0.27 -1.03,0.59 -1.31,0.973 -0.24,0.34 -0.39,0.789 -0.39,1.34 v 53.168 c 0,5.18 -0.41,9.332 -1.24,12.519 -0.8,3.141 -1.97,5.879 -3.53,8.161 -1.51,2.289 -3.53,4.039 -5.98,5.261 -2.46,1.207 -5.29,1.801 -8.54,1.801 -4.15,0 -8.3,-1.492 -12.49,-4.434 -4.18,-2.968 -8.55,-7.296 -13.11,-13.007 v -63.469 c 0,-0.551 -0.13,-1 -0.42,-1.34 -0.27,-0.383 -0.69,-0.703 -1.31,-0.973 -0.62,-0.277 -1.45,-0.488 -2.53,-0.629 -1.07,-0.128 -2.45,-0.171 -4.11,-0.171 -1.63,0 -2.98,0.043 -4.05,0.171 -1.07,0.141 -1.93,0.352 -2.59,0.629 -0.62,0.27 -1.04,0.59 -1.32,0.973 -0.2,0.34 -0.34,0.789 -0.34,1.34 v 90.797 c 0,0.551 0.1,1 0.31,1.351 0.21,0.379 0.59,0.719 1.21,1.039 0.62,0.27 1.38,0.493 2.32,0.582 0.94,0.11 2.18,0.141 3.73,0.141 1.49,0 2.74,-0.031 3.7,-0.141 0.97,-0.089 1.73,-0.312 2.26,-0.582 0.52,-0.32 0.93,-0.66 1.13,-1.039 0.28,-0.351 0.38,-0.8 0.38,-1.351 v -12.008 c 5.09,5.719 10.21,9.898 15.29,12.559 5.09,2.671 10.21,3.992 15.39,3.992 6.02,0 11.15,-1.012 15.3,-3.09 4.11,-2.043 7.47,-4.774 10.03,-8.192 2.56,-3.46 4.35,-7.468 5.46,-12.07 1.11,-4.601 1.7,-10.14 1.7,-16.609 z m -107.12,121.476 c 0,-3.91 -0.77,-6.566 -2.22,-7.988 -1.48,-1.422 -4.22,-2.109 -8.16,-2.109 -3.91,0 -6.58,0.687 -8.03,2.07 -1.46,1.391 -2.18,3.988 -2.18,7.82 0,3.911 0.72,6.539 2.22,7.957 1.48,1.422 4.18,2.114 8.19,2.114 3.88,0 6.57,-0.66 8.03,-2.043 1.41,-1.387 2.15,-4.008 2.15,-7.821 z m -7.17,-28.046 c 2.01,0 3.4,-0.454 4.12,-1.391 0.76,-0.891 1.1,-2.211 1.1,-3.973 v -88.066 c 0,-0.551 -0.13,-1 -0.38,-1.34 -0.27,-0.383 -0.72,-0.703 -1.35,-0.973 -0.65,-0.277 -1.52,-0.488 -2.59,-0.629 -1.07,-0.128 -2.39,-0.171 -3.91,-0.171 -1.69,0 -3.08,0.043 -4.15,0.171 -1.1,0.141 -1.93,0.352 -2.56,0.629 -0.65,0.27 -1.1,0.59 -1.38,0.973 -0.28,0.34 -0.42,0.789 -0.42,1.34 v 79.59 h -46.9 v -50.633 c 0,-6.27 0.94,-10.969 2.77,-14.188 1.87,-3.171 5.19,-4.769 9.96,-4.769 1.52,0 2.91,0.137 4.12,0.449 1.21,0.32 2.31,0.617 3.21,0.969 0.98,0.308 1.77,0.621 2.42,0.93 0.69,0.312 1.32,0.449 1.84,0.449 0.35,0 0.65,-0.071 0.96,-0.239 0.32,-0.171 0.52,-0.492 0.7,-0.96 0.17,-0.461 0.31,-1.122 0.45,-1.911 0.13,-0.8 0.2,-1.828 0.2,-3.05 0,-1.93 -0.14,-3.45 -0.41,-4.571 -0.28,-1.097 -0.65,-1.957 -1.18,-2.519 -0.55,-0.578 -1.38,-1.098 -2.42,-1.547 -1.11,-0.492 -2.32,-0.871 -3.69,-1.184 -1.39,-0.308 -2.85,-0.558 -4.4,-0.758 -1.52,-0.21 -3.11,-0.308 -4.64,-0.308 -4.7,0 -8.75,0.617 -12.11,1.867 -3.39,1.242 -6.12,3.152 -8.26,5.66 -2.18,2.531 -3.7,5.723 -4.71,9.59 -0.96,3.871 -1.45,8.402 -1.45,13.672 v 53.051 h -12.7 c -1.03,0 -1.82,0.558 -2.41,1.617 -0.62,1.082 -0.94,2.851 -0.94,5.269 0,1.243 0.11,2.352 0.25,3.211 0.17,0.871 0.41,1.59 0.69,2.18 0.24,0.563 0.62,0.973 1.04,1.211 0.41,0.211 0.9,0.352 1.45,0.352 h 12.62 v 21.578 c 0,0.48 0.11,0.902 0.35,1.308 0.25,0.422 0.66,0.762 1.31,1.082 0.66,0.282 1.49,0.512 2.6,0.621 1.03,0.141 2.42,0.207 4.01,0.207 1.66,0 3.05,-0.066 4.15,-0.207 1.04,-0.109 1.91,-0.339 2.49,-0.621 0.63,-0.32 1.04,-0.66 1.32,-1.082 0.27,-0.406 0.41,-0.828 0.41,-1.308 v -21.578 z m -109.68,-93.43 c 0,-0.551 -0.14,-1 -0.38,-1.34 -0.27,-0.383 -0.72,-0.703 -1.32,-0.973 -0.58,-0.277 -1.44,-0.488 -2.52,-0.629 -1.07,-0.128 -2.46,-0.171 -4.15,-0.171 -1.59,0 -2.94,0.043 -4.01,0.171 -1.11,0.141 -1.94,0.352 -2.56,0.629 -0.66,0.27 -1.1,0.59 -1.32,0.973 -0.27,0.34 -0.38,0.789 -0.38,1.34 v 134.797 c 0,0.519 0.11,1 0.38,1.39 0.22,0.411 0.66,0.75 1.32,1.032 0.62,0.238 1.45,0.449 2.56,0.589 1.07,0.129 2.42,0.2 4.01,0.2 1.69,0 3.08,-0.071 4.15,-0.2 1.08,-0.14 1.94,-0.351 2.52,-0.589 0.6,-0.282 1.05,-0.621 1.32,-1.032 0.24,-0.39 0.38,-0.871 0.38,-1.39 z m -47.31,0 c 0,-0.551 -0.14,-1 -0.36,-1.34 -0.24,-0.383 -0.65,-0.703 -1.24,-0.973 -0.62,-0.277 -1.41,-0.488 -2.42,-0.629 -0.96,-0.128 -2.15,-0.171 -3.56,-0.171 -1.56,0 -2.8,0.043 -3.77,0.171 -0.97,0.141 -1.77,0.352 -2.36,0.629 -0.55,0.27 -0.93,0.59 -1.14,0.973 -0.17,0.34 -0.31,0.789 -0.31,1.34 v 12.008 c -5.17,-5.711 -10.27,-9.899 -15.32,-12.52 -5.03,-2.601 -10.15,-3.91 -15.32,-3.91 -6.06,0 -11.16,1 -15.29,3.012 -4.14,2 -7.49,4.769 -10.05,8.226 -2.55,3.461 -4.37,7.5 -5.5,12.102 -1.11,4.601 -1.66,10.199 -1.66,16.781 v 55.098 c 0,0.551 0.12,1 0.37,1.351 0.22,0.379 0.67,0.719 1.34,1.039 0.68,0.27 1.56,0.493 2.63,0.582 1.08,0.11 2.42,0.141 4.03,0.141 1.63,0 2.95,-0.031 4.05,-0.141 1.07,-0.089 1.92,-0.312 2.56,-0.582 0.64,-0.32 1.11,-0.66 1.36,-1.039 0.28,-0.351 0.41,-0.8 0.41,-1.351 v -52.86 c 0,-5.32 0.39,-9.578 1.17,-12.757 0.76,-3.211 1.94,-5.911 3.52,-8.192 1.58,-2.25 3.58,-3.98 6.01,-5.23 2.42,-1.239 5.24,-1.86 8.47,-1.86 4.17,0 8.32,1.481 12.45,4.418 4.14,2.981 8.53,7.301 13.18,13.012 v 63.469 c 0,0.551 0.11,1 0.35,1.351 0.24,0.379 0.69,0.719 1.38,1.039 0.66,0.27 1.52,0.493 2.56,0.582 1.04,0.11 2.39,0.141 4.08,0.141 1.59,0 2.98,-0.031 4.01,-0.141 1.11,-0.089 1.94,-0.312 2.56,-0.582 0.6,-0.32 1.04,-0.66 1.36,-1.039 0.31,-0.351 0.45,-0.8 0.45,-1.351 z m -101.58,24.726 c 0,-4.668 -0.87,-8.777 -2.57,-12.41 -1.71,-3.629 -4.15,-6.707 -7.32,-9.199 -3.16,-2.488 -6.92,-4.367 -11.3,-5.648 -4.37,-1.27 -9.18,-1.891 -14.42,-1.891 -3.23,0 -6.31,0.23 -9.23,0.719 -2.93,0.519 -5.56,1.172 -7.87,1.941 -2.32,0.762 -4.29,1.59 -5.9,2.422 -1.63,0.828 -2.8,1.59 -3.52,2.277 -0.75,0.661 -1.28,1.59 -1.64,2.813 -0.32,1.207 -0.49,2.867 -0.49,4.937 0,1.282 0.06,2.352 0.2,3.223 0.13,0.898 0.29,1.59 0.5,2.137 0.21,0.531 0.49,0.91 0.85,1.14 0.38,0.25 0.8,0.352 1.26,0.352 0.75,0 1.83,-0.449 3.29,-1.34 1.45,-0.91 3.23,-1.91 5.34,-2.98 2.13,-1.082 4.62,-2.082 7.53,-2.981 2.88,-0.898 6.2,-1.351 9.97,-1.351 2.84,0 5.38,0.281 7.69,0.902 2.27,0.59 4.26,1.488 5.94,2.66 1.68,1.18 2.97,2.668 3.88,4.508 0.91,1.793 1.36,3.973 1.36,6.461 0,2.519 -0.66,4.711 -1.96,6.441 -1.3,1.758 -3.05,3.321 -5.2,4.629 -2.16,1.34 -4.58,2.551 -7.26,3.602 -2.7,1.027 -5.46,2.136 -8.32,3.277 -2.87,1.141 -5.65,2.422 -8.38,3.883 -2.72,1.449 -5.16,3.207 -7.3,5.289 -2.17,2.07 -3.9,4.559 -5.21,7.469 -1.31,2.902 -1.98,6.359 -1.98,10.371 0,3.57 0.7,6.988 2.08,10.25 1.39,3.281 3.45,6.121 6.21,8.57 2.75,2.461 6.2,4.43 10.35,5.918 4.13,1.481 8.95,2.223 14.47,2.223 2.42,0 4.84,-0.223 7.26,-0.602 2.43,-0.41 4.6,-0.93 6.56,-1.519 1.95,-0.621 3.61,-1.243 5,-1.969 1.36,-0.692 2.42,-1.313 3.13,-1.871 0.69,-0.52 1.17,-1 1.4,-1.422 0.24,-0.379 0.42,-0.828 0.5,-1.34 0.1,-0.519 0.21,-1.148 0.31,-1.867 0.11,-0.731 0.16,-1.66 0.16,-2.731 0,-1.152 -0.05,-2.152 -0.16,-2.98 -0.1,-0.832 -0.27,-1.531 -0.5,-2.07 -0.24,-0.52 -0.52,-0.903 -0.87,-1.153 -0.32,-0.238 -0.7,-0.347 -1.1,-0.347 -0.61,0 -1.49,0.347 -2.63,1.121 -1.14,0.718 -2.62,1.519 -4.43,2.347 -1.82,0.86 -3.96,1.621 -6.42,2.379 -2.45,0.723 -5.25,1.114 -8.42,1.114 -2.82,0 -5.31,-0.313 -7.47,-0.973 -2.15,-0.629 -3.9,-1.547 -5.29,-2.738 -1.39,-1.172 -2.42,-2.551 -3.13,-4.18 -0.71,-1.59 -1.06,-3.352 -1.06,-5.223 0,-2.629 0.67,-4.84 2.02,-6.609 1.34,-1.797 3.11,-3.348 5.25,-4.699 2.15,-1.348 4.6,-2.559 7.37,-3.629 2.74,-1.082 5.57,-2.18 8.42,-3.321 2.85,-1.14 5.69,-2.421 8.47,-3.839 2.79,-1.43 5.26,-3.11 7.43,-5.161 2.13,-2 3.86,-4.421 5.18,-7.261 1.32,-2.797 1.97,-6.188 1.97,-10.071 z m -87.28,-24.726 c 0,-0.551 -0.15,-1 -0.4,-1.34 -0.28,-0.383 -0.71,-0.703 -1.32,-0.973 -0.61,-0.277 -1.45,-0.488 -2.52,-0.629 -1.07,-0.128 -2.42,-0.171 -4.03,-0.171 -1.69,0 -3.06,0.043 -4.15,0.171 -1.08,0.141 -1.91,0.352 -2.51,0.629 -0.61,0.27 -1.06,0.59 -1.31,0.973 -0.28,0.34 -0.42,0.789 -0.42,1.34 v 53.168 c 0,5.18 -0.4,9.332 -1.21,12.519 -0.79,3.141 -1.98,5.879 -3.53,8.161 -1.54,2.289 -3.54,4.039 -5.99,5.261 -2.46,1.207 -5.3,1.801 -8.54,1.801 -4.16,0 -8.33,-1.492 -12.5,-4.434 -4.17,-2.968 -8.54,-7.296 -13.1,-13.007 v -63.469 c 0,-0.551 -0.15,-1 -0.42,-1.34 -0.27,-0.383 -0.72,-0.703 -1.32,-0.973 -0.61,-0.277 -1.43,-0.488 -2.5,-0.629 -1.1,-0.128 -2.46,-0.171 -4.151,-0.171 -1.614,0 -2.961,0.043 -4.035,0.171 -1.075,0.141 -1.934,0.352 -2.579,0.629 -0.632,0.27 -1.074,0.59 -1.308,0.973 -0.234,0.34 -0.352,0.789 -0.352,1.34 v 90.797 c 0,0.551 0.11,1 0.313,1.351 0.195,0.379 0.605,0.719 1.211,1.039 0.605,0.27 1.367,0.493 2.312,0.582 0.942,0.11 2.18,0.141 3.742,0.141 1.467,0 2.697,-0.031 3.667,-0.141 0.98,-0.089 1.74,-0.312 2.28,-0.582 0.54,-0.32 0.92,-0.66 1.16,-1.039 0.23,-0.351 0.34,-0.8 0.34,-1.351 v -12.008 c 5.12,5.719 10.21,9.898 15.3,12.559 5.08,2.671 10.2,3.992 15.39,3.992 6.05,0 11.13,-1.012 15.27,-3.09 4.15,-2.043 7.48,-4.774 10.05,-8.192 2.56,-3.46 4.39,-7.468 5.5,-12.07 1.1,-4.601 1.66,-10.14 1.66,-16.609 z m -119.894,45.316 c 0,4.871 -0.449,9.543 -1.367,13.903 -0.906,4.359 -2.434,8.199 -4.531,11.519 -2.11,3.289 -4.961,5.879 -8.555,7.82 -3.594,1.891 -8.074,2.872 -13.438,2.872 -4.953,0 -9.199,-0.903 -12.761,-2.641 -3.567,-1.762 -6.504,-4.223 -8.813,-7.43 -2.312,-3.179 -4.019,-6.949 -5.144,-11.351 -1.114,-4.348 -1.68,-9.129 -1.68,-14.309 0,-4.98 0.469,-9.652 1.387,-14.019 0.91,-4.383 2.429,-8.192 4.582,-11.442 2.129,-3.281 5,-5.851 8.594,-7.789 3.589,-1.902 8.074,-2.871 13.433,-2.871 4.875,0 9.133,0.871 12.727,2.629 3.601,1.73 6.543,4.191 8.855,7.371 2.309,3.148 3.996,6.922 5.09,11.27 1.094,4.402 1.621,9.21 1.621,14.468 z m 17.266,1.102 c 0,-7.399 -0.989,-14.219 -2.93,-20.442 -1.953,-6.226 -4.852,-11.589 -8.73,-16.078 -3.868,-4.531 -8.711,-8.031 -14.532,-10.55 -5.8,-2.532 -12.55,-3.77 -20.234,-3.77 -7.449,0 -13.965,1.102 -19.5,3.32 -5.559,2.211 -10.188,5.43 -13.879,9.68 -3.691,4.219 -6.465,9.371 -8.281,15.43 -1.817,6.05 -2.715,12.902 -2.715,20.582 0,7.398 0.957,14.207 2.871,20.437 1.926,6.223 4.805,11.59 8.684,16.09 3.855,4.492 8.679,7.992 14.48,10.481 5.774,2.492 12.539,3.742 20.266,3.742 7.468,0 13.972,-1.121 19.519,-3.332 5.559,-2.211 10.176,-5.461 13.875,-9.68 3.703,-4.262 6.465,-9.379 8.324,-15.43 1.844,-6.058 2.782,-12.898 2.782,-20.48 z M 862.168,675.012 c 0,-1.18 -0.027,-2.153 -0.098,-3.012 -0.058,-0.828 -0.175,-1.52 -0.351,-2.109 -0.176,-0.551 -0.364,-1.071 -0.606,-1.52 -0.246,-0.422 -0.781,-1.07 -1.601,-1.902 -0.852,-0.828 -2.285,-1.867 -4.297,-3.117 -2.024,-1.243 -4.285,-2.352 -6.817,-3.352 -2.519,-0.969 -5.253,-1.77 -8.21,-2.352 -2.969,-0.628 -6.016,-0.898 -9.18,-0.898 -6.528,0 -12.317,1.059 -17.363,3.211 -5.032,2.148 -9.258,5.301 -12.668,9.449 -3.387,4.11 -5.977,9.199 -7.762,15.211 -1.777,6.027 -2.656,12.981 -2.656,20.828 0,8.961 1.082,16.633 3.257,23.071 2.2,6.39 5.2,11.691 8.977,15.769 3.809,4.121 8.293,7.16 13.43,9.133 5.144,2.008 10.703,2.976 16.707,2.976 2.883,0 5.683,-0.25 8.418,-0.796 2.715,-0.551 5.222,-1.243 7.5,-2.114 2.285,-0.898 4.328,-1.898 6.113,-3.039 1.777,-1.14 3.074,-2.109 3.887,-2.91 0.8,-0.828 1.367,-1.449 1.66,-1.93 0.312,-0.449 0.555,-1.007 0.762,-1.66 0.195,-0.629 0.332,-1.347 0.402,-2.179 0.066,-0.801 0.105,-1.809 0.105,-3.008 0,-2.641 -0.312,-4.461 -0.918,-5.512 -0.605,-1.031 -1.339,-1.551 -2.214,-1.551 -1.008,0 -2.161,0.563 -3.477,1.66 -1.32,1.102 -2.98,2.321 -5,3.661 -2.023,1.359 -4.465,2.601 -7.316,3.699 -2.852,1.121 -6.243,1.66 -10.137,1.66 -8.008,0 -14.141,-3.07 -18.418,-9.219 -4.27,-6.172 -6.399,-15.09 -6.399,-26.781 0,-5.879 0.559,-11 1.665,-15.391 1.101,-4.429 2.742,-8.097 4.89,-11.066 2.168,-2.942 4.793,-5.152 7.918,-6.613 3.137,-1.411 6.711,-2.137 10.742,-2.137 3.84,0 7.2,0.59 10.102,1.797 2.89,1.211 5.398,2.562 7.508,3.98 2.129,1.449 3.906,2.762 5.34,3.942 1.457,1.168 2.582,1.757 3.39,1.757 0.469,0 0.867,-0.136 1.211,-0.367 0.332,-0.293 0.625,-0.742 0.852,-1.39 0.242,-0.621 0.41,-1.45 0.515,-2.422 0.086,-0.969 0.137,-2.149 0.137,-3.457 z M 634.52,764.969 c 0,-1.789 0.246,-3.66 0.746,-5.52 0.515,-1.91 1.277,-3.879 2.332,-5.918 1.035,-2.043 2.324,-4.261 3.828,-6.609 1.512,-2.352 3.32,-4.981 5.39,-7.863 4.914,2.742 9.036,5.3 12.364,7.621 3.32,2.32 6.008,4.558 8.027,6.711 2.012,2.14 3.477,4.289 4.375,6.441 0.918,2.168 1.367,4.449 1.367,6.867 0,1.942 -0.344,3.813 -1.054,5.61 -0.711,1.761 -1.836,3.363 -3.372,4.73 -1.558,1.391 -3.511,2.461 -5.867,3.293 -2.343,0.789 -5.168,1.207 -8.468,1.207 -3.563,0 -6.571,-0.48 -9.032,-1.379 -2.453,-0.898 -4.472,-2.109 -6.054,-3.629 -1.575,-1.531 -2.735,-3.293 -3.477,-5.301 -0.742,-2 -1.105,-4.109 -1.105,-6.261 z m -11.707,-70.207 c 0,-3.5 0.585,-6.672 1.765,-9.582 1.176,-2.899 2.902,-5.391 5.207,-7.508 2.285,-2.113 5.137,-3.774 8.555,-4.942 3.445,-1.179 7.402,-1.769 11.914,-1.769 2.754,0 5.449,0.277 8.066,0.871 2.625,0.547 5.137,1.348 7.52,2.309 2.39,0.968 4.656,2.148 6.816,3.531 2.149,1.379 4.129,2.84 5.949,4.387 -3.5,3.011 -6.984,6.16 -10.441,9.421 -3.469,3.282 -6.816,6.532 -10.039,9.852 -3.23,3.289 -6.348,6.566 -9.336,9.816 -2.988,3.262 -5.723,6.442 -8.215,9.551 -3.367,-2.14 -6.172,-4.289 -8.426,-6.398 -2.265,-2.141 -4.082,-4.25 -5.449,-6.36 -1.379,-2.109 -2.363,-4.261 -2.969,-6.402 -0.605,-2.18 -0.917,-4.43 -0.917,-6.777 z m -18.055,-1.692 c 0,3.7 0.496,7.192 1.504,10.512 1.023,3.359 2.593,6.566 4.754,9.68 2.148,3.148 4.953,6.168 8.425,9.109 3.457,2.899 7.649,5.867 12.551,8.809 -2.695,3.64 -4.988,6.922 -6.914,9.902 -1.914,2.938 -3.496,5.699 -4.734,8.258 -1.25,2.558 -2.129,5.019 -2.668,7.332 -0.559,2.328 -0.813,4.637 -0.813,6.988 0,4.18 0.703,8.172 2.114,11.969 1.414,3.812 3.679,7.16 6.816,10.09 3.125,2.91 7.137,5.23 12.051,6.961 4.91,1.699 10.855,2.558 17.859,2.558 5.918,0 11.035,-0.617 15.383,-1.898 4.336,-1.281 7.937,-3.11 10.789,-5.469 2.871,-2.351 5.02,-5.18 6.465,-8.5 1.433,-3.32 2.168,-7.062 2.168,-11.152 0,-3.969 -0.645,-7.598 -1.922,-10.879 -1.281,-3.328 -3.32,-6.508 -6.145,-9.621 -2.832,-3.078 -6.445,-6.168 -10.859,-9.199 -4.394,-3.09 -9.719,-6.301 -15.977,-9.649 2.286,-2.769 4.778,-5.652 7.469,-8.609 2.68,-3.024 5.481,-6.032 8.418,-9.043 2.934,-3.039 5.918,-6.008 8.977,-8.949 3.066,-2.911 6.074,-5.719 9.035,-8.411 1.348,1.801 2.559,3.879 3.633,6.192 1.074,2.32 2.019,4.781 2.82,7.371 0.813,2.59 1.414,5.219 1.809,7.918 0.418,2.699 0.601,5.43 0.601,8.172 v 3.617 c 0,0.691 0.129,1.25 0.371,1.703 0.227,0.406 0.617,0.789 1.157,1.098 0.535,0.289 1.316,0.519 2.371,0.672 1.035,0.097 2.402,0.16 4.082,0.16 1.484,0 2.734,-0.032 3.789,-0.063 1.035,-0.07 1.894,-0.25 2.578,-0.48 0.652,-0.219 1.152,-0.598 1.445,-1.117 0.313,-0.481 0.449,-1.172 0.449,-2.043 v -2.52 c 0,-3.769 -0.312,-7.469 -0.949,-11.098 -0.64,-3.632 -1.504,-7.203 -2.625,-10.652 -1.113,-3.457 -2.488,-6.777 -4.14,-9.937 -1.641,-3.172 -3.477,-6.082 -5.5,-8.782 3.031,-2.422 5.675,-4.429 7.921,-6.05 2.254,-1.629 4.168,-2.938 5.762,-3.95 1.57,-1 2.891,-1.691 3.926,-2.109 1.035,-0.41 1.902,-0.582 2.578,-0.582 0.676,0 1.316,0 1.926,0.07 0.601,0.071 1.082,-0.039 1.441,-0.277 0.383,-0.281 0.664,-0.832 0.871,-1.633 0.203,-0.789 0.293,-2.039 0.293,-3.73 0,-1.7 -0.039,-3.02 -0.09,-4.047 -0.066,-1.012 -0.183,-1.762 -0.359,-2.25 -0.176,-0.512 -0.449,-0.93 -0.851,-1.282 -0.411,-0.308 -1.161,-0.621 -2.223,-0.89 -1.074,-0.289 -2.492,-0.418 -4.238,-0.418 -1.348,0 -2.825,0.238 -4.426,0.726 -1.629,0.454 -3.516,1.282 -5.664,2.454 -2.157,1.179 -4.649,2.796 -7.52,4.796 -2.851,2.024 -6.191,4.571 -10.027,7.692 -2.824,-2.32 -5.813,-4.43 -8.93,-6.371 -3.133,-1.969 -6.465,-3.629 -10,-5.008 -3.523,-1.352 -7.222,-2.461 -11.101,-3.223 -3.848,-0.758 -8.039,-1.136 -12.547,-1.136 -4.242,0 -8.254,0.347 -12.063,1.109 -3.801,0.719 -7.312,1.801 -10.527,3.148 -3.234,1.379 -6.121,3.11 -8.684,5.223 -2.554,2.066 -4.722,4.418 -6.504,7.09 -1.785,2.668 -3.164,5.629 -4.148,8.93 -0.969,3.32 -1.453,6.867 -1.453,10.718" /></g></g></svg>
