<svg width="20" height="18" viewBox="0 0 20 18" fill="none" xmlns="http://www.w3.org/2000/svg">
<path d="M10.1405 2.96646e-05C4.61706 -0.0820013 0.187369 4.86331 1.11706 10.5235C1.74987 14.3633 4.90221 17.3867 8.75768 17.9063C11.3553 18.2578 13.785 17.5078 15.6249 16.0313L14.6874 14.8594C13.1522 16.0899 11.1327 16.7266 8.94518 16.4297C5.75378 16 3.14049 13.4649 2.61706 10.2891C1.8319 5.51175 5.49596 1.43362 10.1171 1.50003C14.0585 1.55862 17.3788 4.82425 17.4999 8.76565C17.5038 8.85159 17.4999 8.93362 17.4999 9.02347C17.496 10.6758 16.1561 12 14.4999 12C13.6639 12 12.9999 11.3399 12.9999 10.5V4.50003H11.4999V5.08597C10.9608 4.71878 10.3202 4.50003 9.62487 4.50003C7.7694 4.50003 6.24987 6.01956 6.24987 7.87503V10.125C6.24987 11.9805 7.7694 13.5 9.62487 13.5C10.6366 13.5 11.535 13.0391 12.1561 12.3282C12.7069 13.0274 13.5467 13.5 14.4999 13.5C16.9647 13.5 18.9921 11.4922 18.9999 9.02347C18.9999 8.92581 19.0038 8.82815 18.9999 8.71878C18.8553 3.96878 14.8944 0.0703427 10.1405 2.96646e-05ZM9.62487 6.00003C10.6678 6.00003 11.4999 6.83206 11.4999 7.87503V10.125C11.4999 11.168 10.6678 12 9.62487 12C8.5819 12 7.74987 11.168 7.74987 10.125V7.87503C7.74987 6.83206 8.5819 6.00003 9.62487 6.00003Z" fill="white"/>
</svg>
