<svg width="18" height="19" viewBox="0 0 18 19" fill="none" xmlns="http://www.w3.org/2000/svg">
<path d="M13.5 0.25C11.0234 0.25 9 2.27344 9 4.75C9 5.49609 9.28906 6.25391 9.65625 7.09375C10.0273 7.93359 10.4922 8.82422 10.9688 9.64844C11.9258 11.2969 12.8906 12.6719 12.8906 12.6719L13.5 13.5625L14.1094 12.6719C14.1094 12.6719 15.0781 11.2969 16.0312 9.64844C16.5078 8.82422 16.9766 7.93359 17.3438 7.09375C17.7148 6.25391 18 5.49609 18 4.75C18 2.27344 15.9766 0.25 13.5 0.25ZM5.97656 1.70312L0 4.25781V18.6484L6.02344 16.0469L12.0234 18.2969L18 15.7422V9.20312C17.5234 10.1211 16.9922 11 16.5 11.7812V14.7578L12.75 16.3516V15.1328L11.6484 13.5391C11.5312 13.3711 11.3945 13.168 11.25 12.9531V16.4219L6.75 14.7344V3.57812L7.57031 3.88281C7.64453 3.375 7.77734 2.88672 7.96875 2.42969L5.97656 1.70312ZM13.5 1.75C15.1641 1.75 16.5 3.08594 16.5 4.75C16.5 5.03906 16.3203 5.72656 15.9844 6.48438C15.6523 7.24219 15.1797 8.10547 14.7188 8.89844C14.1055 9.95312 13.8438 10.3281 13.5 10.8438C13.1562 10.3281 12.8945 9.95312 12.2812 8.89844C11.8203 8.10547 11.3516 7.24219 11.0156 6.48438C10.6836 5.72656 10.5 5.03906 10.5 4.75C10.5 3.08594 11.8359 1.75 13.5 1.75ZM5.25 3.625V14.7578L1.5 16.3516V5.24219L5.25 3.625ZM13.5 3.625C12.8789 3.625 12.375 4.12891 12.375 4.75C12.375 5.37109 12.8789 5.875 13.5 5.875C14.1211 5.875 14.625 5.37109 14.625 4.75C14.625 4.12891 14.1211 3.625 13.5 3.625Z" fill="white"/>
</svg>
