<svg width="554" height="147" viewBox="0 0 554 147" fill="none" xmlns="http://www.w3.org/2000/svg">
<path d="M0 147H554V-5.95506e-06H0V147Z" fill="white"/>
<path d="M241.596 33.3584C241.596 31.6817 241.292 30.2808 240.685 29.1557C240.078 28.0312 239.328 27.1933 238.433 26.6411C237.538 26.0896 236.613 25.7394 235.656 25.5904C234.7 25.4422 233.769 25.3684 232.864 25.3684H227.958V41.889H232.741C234.345 41.889 235.677 41.6778 236.736 41.2523C237.796 40.8284 238.685 40.2393 239.405 39.4858C240.125 38.7331 240.67 37.8307 241.04 36.78C241.411 35.7301 241.596 34.5888 241.596 33.3584V33.3584ZM247.18 32.9129C247.18 34.9713 246.852 36.8284 246.193 38.4835C245.535 40.1386 244.594 41.5503 243.37 42.717C242.146 43.8844 240.644 44.7861 238.865 45.4228C237.086 46.0595 234.962 46.3782 232.494 46.3782H227.958V61.2122C227.958 61.3819 227.912 61.5309 227.819 61.6584C227.727 61.7844 227.582 61.8857 227.387 61.9602C227.191 62.0347 226.924 62.0985 226.585 62.1515C226.245 62.2037 225.818 62.2314 225.304 62.2314C224.79 62.2314 224.363 62.2037 224.024 62.1515C223.685 62.0985 223.412 62.0347 223.206 61.9602C223 61.8857 222.856 61.7844 222.774 61.6584C222.692 61.5309 222.651 61.3819 222.651 61.2122V23.2033C222.651 22.3547 222.867 21.7502 223.299 21.3892C223.731 21.0282 224.214 20.8478 224.749 20.8478H233.296C234.16 20.8478 234.988 20.8846 235.78 20.9591C236.571 21.0336 237.508 21.1926 238.587 21.4361C239.667 21.6811 240.768 22.1373 241.889 22.8047C243.01 23.4737 243.961 24.2963 244.744 25.2724C245.525 26.2486 246.126 27.3792 246.548 28.6626C246.969 29.9475 247.18 31.363 247.18 32.9129" fill="#666666"/>
<path d="M302.403 61.2122C302.403 61.3819 302.362 61.5309 302.28 61.6584C302.198 61.7844 302.054 61.8857 301.848 61.9602C301.642 62.0347 301.37 62.0985 301.031 62.1515C300.691 62.2037 300.275 62.2314 299.781 62.2314C299.245 62.2314 298.814 62.2037 298.485 62.1515C298.156 62.0985 297.888 62.0347 297.682 61.9602C297.477 61.8857 297.333 61.7844 297.25 61.6584C297.168 61.5309 297.127 61.3819 297.127 61.2122V42.9397H278.954V61.2122C278.954 61.3819 278.912 61.5309 278.83 61.6584C278.748 61.7844 278.604 61.8857 278.398 61.9602C278.192 62.0347 277.92 62.0985 277.58 62.1515C277.242 62.2037 276.814 62.2314 276.3 62.2314C275.806 62.2314 275.385 62.2037 275.035 62.1515C274.685 62.0985 274.407 62.0347 274.202 61.9602C273.996 61.8857 273.852 61.7844 273.77 61.6584C273.687 61.5309 273.647 61.3819 273.647 61.2122V21.6749C273.647 21.5052 273.687 21.357 273.77 21.2295C273.852 21.1027 273.996 21.0021 274.202 20.9269C274.407 20.8531 274.685 20.7886 275.035 20.7356C275.385 20.6834 275.806 20.6565 276.3 20.6565C276.814 20.6565 277.242 20.6834 277.58 20.7356C277.92 20.7886 278.192 20.8531 278.398 20.9269C278.604 21.0021 278.748 21.1027 278.83 21.2295C278.912 21.357 278.954 21.5052 278.954 21.6749V38.1648H297.127V21.6749C297.127 21.5052 297.168 21.357 297.25 21.2295C297.333 21.1027 297.477 21.0021 297.682 20.9269C297.888 20.8531 298.156 20.7886 298.485 20.7356C298.814 20.6834 299.245 20.6565 299.781 20.6565C300.275 20.6565 300.691 20.6834 301.031 20.7356C301.37 20.7886 301.642 20.8531 301.848 20.9269C302.054 21.0021 302.198 21.1027 302.28 21.2295C302.362 21.357 302.403 21.5052 302.403 21.6749V61.2122Z" fill="#666666"/>
<path d="M353.745 59.7798C353.745 60.1615 353.725 60.4964 353.683 60.7829C353.642 61.0693 353.571 61.3074 353.468 61.4979C353.364 61.6899 353.246 61.8274 353.112 61.9119C352.979 61.9979 352.83 62.0394 352.666 62.0394H333.505C333.031 62.0394 332.584 61.8758 332.162 61.5463C331.74 61.2176 331.53 60.6392 331.53 59.8113V23.0759C331.53 22.2479 331.74 21.6704 332.162 21.3409C332.584 21.0122 333.031 20.8478 333.505 20.8478H352.45C352.614 20.8478 352.763 20.89 352.897 20.9753C353.031 21.0598 353.139 21.198 353.221 21.3893C353.303 21.5797 353.37 21.8186 353.422 22.1043C353.473 22.3915 353.499 22.7472 353.499 23.1711C353.499 23.5536 353.473 23.8877 353.422 24.1742C353.37 24.4607 353.303 24.6949 353.221 24.8746C353.139 25.0551 353.031 25.188 352.897 25.2725C352.763 25.3577 352.614 25.4 352.45 25.4H336.837V38.3246H350.228C350.392 38.3246 350.541 38.3714 350.675 38.4674C350.809 38.5627 350.922 38.6955 351.015 38.8653C351.108 39.035 351.174 39.2685 351.216 39.5657C351.256 39.8622 351.277 40.2132 351.277 40.6156C351.277 40.9981 351.256 41.3276 351.216 41.6026C351.174 41.8783 351.108 42.1018 351.015 42.2708C350.922 42.4413 350.809 42.5634 350.675 42.6379C350.541 42.7124 350.392 42.7485 350.228 42.7485H336.837V57.488H352.666C352.83 57.488 352.979 57.5302 353.112 57.6155C353.246 57.6999 353.364 57.8328 353.468 58.0125C353.571 58.1938 353.642 58.4273 353.683 58.7138C353.725 59.0002 353.745 59.3551 353.745 59.7798" fill="#666666"/>
<path d="M260.23 15.7695V68.9963" stroke="#333333" stroke-width="5"/>
<path d="M317.055 15.7695V68.9963" stroke="#333333" stroke-width="5"/>
<path d="M28.1793 108.661C28.1793 107.781 28.1141 106.93 27.9842 106.108C27.8528 105.285 27.6281 104.555 27.3117 103.918C26.9951 103.281 26.5688 102.771 26.0341 102.388C25.4992 102.005 24.8347 101.814 24.0387 101.814C23.6403 101.814 23.2484 101.874 22.8638 101.996C22.4776 102.117 22.0864 102.308 21.6881 102.57C21.2905 102.829 20.8741 103.175 20.4392 103.601C20.0035 104.03 19.5442 104.555 19.0591 105.178V112.028C19.9045 113.085 20.7069 113.895 21.4648 114.456C22.2228 115.017 23.0187 115.296 23.8522 115.296C24.623 115.296 25.2846 115.106 25.8388 114.723C26.3915 114.34 26.8385 113.83 27.1818 113.193C27.5233 112.557 27.7745 111.842 27.9375 111.051C28.099 110.261 28.1793 109.463 28.1793 108.661V108.661ZM31.3488 108.296C31.3488 109.802 31.191 111.153 30.8766 112.351C30.5615 113.552 30.0979 114.568 29.4857 115.402C28.8748 116.236 28.1176 116.88 27.2147 117.336C26.3132 117.787 25.2819 118.012 24.1199 118.012C23.6253 118.012 23.1681 117.963 22.7483 117.861C22.3284 117.756 21.9163 117.598 21.5152 117.381C21.1132 117.165 20.7148 116.89 20.3194 116.558C19.924 116.228 19.5034 115.84 19.0591 115.393V123.999C19.0591 124.101 19.0347 124.19 18.9851 124.266C18.9356 124.344 18.8552 124.406 18.744 124.457C18.6326 124.509 18.4783 124.547 18.281 124.573C18.0822 124.598 17.8295 124.609 17.5203 124.609C17.2237 124.609 16.9762 124.598 16.7787 124.573C16.5806 124.547 16.4235 124.509 16.3057 124.457C16.1887 124.406 16.1091 124.344 16.0661 124.266C16.0215 124.19 16 124.101 16 123.999V99.9601C16 99.8441 16.0195 99.7512 16.056 99.6811C16.0933 99.6109 16.1672 99.5522 16.2786 99.4991C16.3897 99.4498 16.5312 99.4138 16.7041 99.3948C16.8777 99.3759 17.0874 99.3664 17.3351 99.3664C17.5949 99.3664 17.808 99.3759 17.9745 99.3948C18.1417 99.4138 18.281 99.4498 18.3923 99.4991C18.5035 99.5522 18.5795 99.6109 18.6233 99.6811C18.6665 99.7512 18.688 99.8441 18.688 99.9601V102.273C19.1954 101.738 19.6827 101.272 20.1522 100.877C20.6222 100.483 21.0953 100.153 21.5705 99.8915C22.0462 99.6318 22.5344 99.4327 23.0345 99.3C23.5356 99.1655 24.0639 99.0972 24.62 99.0972C25.8316 99.0972 26.863 99.3399 27.7157 99.8251C28.5683 100.31 29.2639 100.974 29.8014 101.814C30.339 102.655 30.7309 103.634 30.9786 104.75C31.2254 105.867 31.3488 107.047 31.3488 108.296" fill="#666666"/>
<path d="M45.6971 101.088C45.6971 101.368 45.6907 101.605 45.6778 101.795C45.6648 101.986 45.6418 102.136 45.6038 102.246C45.5665 102.352 45.5198 102.435 45.4647 102.493C45.4086 102.551 45.3318 102.578 45.2328 102.578C45.1345 102.578 45.0138 102.551 44.8725 102.493C44.7303 102.435 44.5689 102.378 44.3894 102.322C44.2099 102.263 44.0091 102.21 43.788 102.159C43.5661 102.108 43.3235 102.083 43.0652 102.083C42.7545 102.083 42.4537 102.145 42.1559 102.273C41.8593 102.401 41.5471 102.612 41.2206 102.904C40.8926 103.2 40.5496 103.588 40.1906 104.071C39.8339 104.555 39.437 105.148 39.0041 105.849V117.172C39.0041 117.273 38.9799 117.358 38.931 117.428C38.8807 117.5 38.8018 117.561 38.6905 117.61C38.5793 117.661 38.4228 117.699 38.2262 117.726C38.0288 117.75 37.7755 117.764 37.4668 117.764C37.1689 117.764 36.9227 117.75 36.7239 117.726C36.5266 117.699 36.3687 117.661 36.2524 117.61C36.1354 117.561 36.0551 117.5 36.0112 117.428C35.9667 117.358 35.9452 117.273 35.9452 117.172V99.9601C35.9452 99.8574 35.9645 99.7721 36.0026 99.7019C36.0386 99.6318 36.1139 99.5673 36.2251 99.5086C36.3364 99.4517 36.4764 99.4138 36.6508 99.3948C36.8244 99.3759 37.0519 99.3664 37.3354 99.3664C37.609 99.3664 37.8343 99.3759 38.0123 99.3948C38.1916 99.4138 38.3317 99.4517 38.43 99.5086C38.529 99.5673 38.6008 99.6318 38.6438 99.7019C38.687 99.7721 38.7085 99.8574 38.7085 99.9601V102.464C39.1657 101.776 39.5949 101.217 39.9969 100.781C40.3987 100.348 40.7778 100.008 41.1366 99.7588C41.4955 99.5086 41.8508 99.3361 42.2025 99.2432C42.5555 99.1465 42.9086 99.0972 43.2675 99.0972C43.429 99.0972 43.6107 99.1067 43.8152 99.1276C44.0197 99.1465 44.2316 99.1806 44.4541 99.2318C44.6764 99.283 44.8774 99.3399 45.0569 99.4043C45.2363 99.4688 45.3642 99.5313 45.4373 99.5958C45.5106 99.6583 45.5615 99.7209 45.5867 99.7778C45.6096 99.8346 45.6311 99.9086 45.6504 99.9979C45.6692 100.087 45.6813 100.218 45.6864 100.39C45.6943 100.561 45.6971 100.794 45.6971 101.088" fill="#666666"/>
<path d="M60.919 108.583C60.919 107.654 60.8351 106.773 60.6664 105.946C60.4977 105.116 60.2206 104.388 59.8339 103.764C59.4476 103.14 58.9238 102.648 58.2634 102.282C57.6009 101.92 56.7799 101.738 55.7943 101.738C54.8828 101.738 54.1006 101.903 53.4452 102.235C52.7907 102.568 52.2523 103.036 51.8288 103.641C51.404 104.246 51.0896 104.962 50.8836 105.793C50.6784 106.621 50.5742 107.527 50.5742 108.507C50.5742 109.451 50.6589 110.337 50.8276 111.167C50.9963 111.995 51.2761 112.717 51.6688 113.335C52.0622 113.955 52.5897 114.446 53.25 114.81C53.9102 115.173 54.7343 115.354 55.719 115.354C56.6162 115.354 57.3971 115.19 58.0575 114.858C58.7171 114.526 59.2597 114.06 59.6845 113.462C60.108 112.862 60.4202 112.147 60.6197 111.321C60.8185 110.49 60.919 109.578 60.919 108.583V108.583ZM64.0878 108.374C64.0878 109.775 63.9098 111.068 63.551 112.247C63.1928 113.427 62.6581 114.443 61.9476 115.296C61.2362 116.152 60.3471 116.818 59.279 117.296C58.2096 117.773 56.9701 118.012 55.5611 118.012C54.1903 118.012 52.993 117.804 51.9738 117.381C50.9546 116.96 50.1062 116.349 49.4258 115.546C48.7462 114.742 48.2402 113.768 47.9065 112.619C47.5726 111.472 47.4062 110.171 47.4062 108.719C47.4062 107.314 47.582 106.026 47.9329 104.847C48.2846 103.668 48.818 102.649 49.5286 101.795C50.2391 100.94 51.1255 100.278 52.1877 99.8062C53.2501 99.3341 54.4931 99.0972 55.915 99.0972C57.2852 99.0972 58.4801 99.3095 59.5015 99.7284C60.5207 100.15 61.369 100.761 62.0494 101.565C62.7291 102.369 63.2395 103.346 63.5783 104.49C63.9192 105.639 64.0878 106.932 64.0878 108.374" fill="#666666"/>
<path d="M72.3584 94.1457C72.3584 94.885 72.2221 95.3874 71.9485 95.6566C71.678 95.9239 71.1777 96.0585 70.4484 96.0585C69.7315 96.0585 69.2434 95.9276 68.9842 95.666C68.7244 95.4044 68.5952 94.9097 68.5952 94.1836C68.5952 93.4443 68.7281 92.9401 68.9936 92.6728C69.2593 92.4036 69.7566 92.2709 70.4843 92.2709C71.215 92.2709 71.7089 92.4017 71.9687 92.6633C72.227 92.9249 72.3584 93.4178 72.3584 94.1457ZM72.0045 117.936C72.0045 119.212 71.9134 120.241 71.726 121.024C71.5415 121.809 71.2508 122.469 70.8562 123.005C70.46 123.539 69.954 123.944 69.3359 124.218C68.7172 124.493 67.9709 124.629 67.0929 124.629C66.6968 124.629 66.3617 124.605 66.0831 124.552C65.8055 124.503 65.5916 124.446 65.443 124.379C65.295 124.317 65.1932 124.243 65.1379 124.162C65.0819 124.078 65.0424 123.982 65.0174 123.876C64.9922 123.765 64.9764 123.656 64.9707 123.539C64.9649 123.424 64.9621 123.284 64.9621 123.119C64.9621 122.889 64.9707 122.692 64.9886 122.526C65.0088 122.361 65.0389 122.226 65.0819 122.124C65.1251 122.021 65.1752 121.95 65.2313 121.906C65.2864 121.859 65.356 121.838 65.443 121.838C65.5176 121.838 65.6633 121.853 65.8786 121.885C66.0961 121.917 66.3451 121.933 66.6308 121.933C67.0378 121.933 67.3858 121.87 67.6765 121.743C67.9672 121.613 68.2055 121.407 68.3907 121.121C68.5759 120.833 68.7123 120.461 68.7984 120.002C68.8839 119.544 68.9291 118.846 68.9291 117.917V99.9601C68.9291 99.8706 68.9528 99.7872 69.0029 99.7114C69.0511 99.6337 69.1358 99.5711 69.2519 99.518C69.3704 99.4687 69.5283 99.4289 69.7258 99.4043C69.9231 99.3796 70.1706 99.3664 70.4672 99.3664C70.7628 99.3664 71.0105 99.3796 71.2078 99.4043C71.4052 99.4289 71.5632 99.4687 71.6815 99.518C71.7986 99.5711 71.8825 99.6337 71.9312 99.7114C71.9816 99.7872 72.0045 99.8706 72.0045 99.9601V117.936" fill="#666666"/>
<path d="M88.8368 106.883C88.8736 105.226 88.516 103.924 87.7638 102.98C87.0125 102.037 85.8963 101.565 84.4164 101.565C83.6592 101.565 82.9931 101.711 82.4202 102.005C81.8483 102.299 81.3709 102.687 80.9856 103.173C80.5994 103.657 80.3015 104.221 80.0899 104.864C79.878 105.508 79.7597 106.181 79.7345 106.883H88.8368ZM91.9145 107.819C91.9145 108.318 91.7925 108.67 91.5507 108.881C91.3082 109.091 91.0318 109.197 90.7209 109.197H79.7345C79.7345 110.153 79.8278 111.013 80.0145 111.777C80.201 112.543 80.5119 113.199 80.9461 113.749C81.3795 114.297 81.9451 114.717 82.6415 115.009C83.3362 115.303 84.1867 115.449 85.1929 115.449C85.9874 115.449 86.6944 115.383 87.316 115.248C87.9369 115.116 88.4752 114.966 88.9272 114.801C89.3809 114.634 89.7528 114.484 90.0449 114.35C90.3369 114.217 90.558 114.149 90.7073 114.149C90.7935 114.149 90.8703 114.173 90.9385 114.217C91.0089 114.263 91.0605 114.328 91.0985 114.418C91.1336 114.505 91.1625 114.632 91.1803 114.791C91.2005 114.951 91.209 115.144 91.209 115.373C91.209 115.538 91.2018 115.684 91.1919 115.804C91.1788 115.925 91.1625 116.033 91.1452 116.129C91.1265 116.224 91.0941 116.311 91.0519 116.388C91.0089 116.463 90.9528 116.537 90.8846 116.607C90.8165 116.677 90.6155 116.791 90.2831 116.95C89.9501 117.11 89.516 117.265 88.9848 117.421C88.4528 117.574 87.8379 117.71 87.1402 117.83C86.4418 117.953 85.6967 118.012 84.9079 118.012C83.535 118.012 82.3328 117.815 81.3014 117.421C80.2692 117.026 79.4008 116.439 78.6975 115.661C77.9926 114.884 77.4607 113.908 77.1019 112.734C76.7452 111.561 76.5657 110.198 76.5657 108.641C76.5657 107.161 76.7509 105.832 77.1219 104.653C77.4916 103.474 78.0263 102.475 78.7239 101.651C79.4223 100.83 80.2657 100.198 81.2548 99.7588C82.2431 99.319 83.3505 99.0972 84.5735 99.0972C85.8841 99.0972 86.998 99.3152 87.9181 99.7474C88.8391 100.184 89.5963 100.766 90.1905 101.499C90.7819 102.233 91.2183 103.093 91.4969 104.079C91.7747 105.069 91.9145 106.125 91.9145 107.245V107.819" fill="#666666"/>
<path d="M108.561 114.551C108.561 114.768 108.554 114.956 108.541 115.116C108.528 115.275 108.507 115.41 108.476 115.517C108.446 115.625 108.408 115.72 108.365 115.804C108.322 115.887 108.223 116.006 108.069 116.166C107.914 116.327 107.651 116.524 107.281 116.761C106.91 116.996 106.494 117.206 106.029 117.392C105.566 117.576 105.062 117.726 104.518 117.839C103.974 117.955 103.413 118.012 102.831 118.012C101.633 118.012 100.571 117.81 99.6447 117.401C98.7174 116.992 97.9422 116.395 97.3178 115.612C96.6925 114.828 96.2174 113.866 95.8909 112.725C95.5629 111.584 95.3992 110.266 95.3992 108.776C95.3992 107.08 95.6002 105.624 96.002 104.405C96.4018 103.188 96.9531 102.189 97.6515 101.412C98.3491 100.635 99.1708 100.056 100.117 99.681C101.062 99.3057 102.085 99.118 103.184 99.118C103.716 99.118 104.231 99.1692 104.731 99.2697C105.232 99.3721 105.694 99.5066 106.114 99.6716C106.534 99.8384 106.906 100.03 107.235 100.246C107.561 100.462 107.8 100.648 107.949 100.801C108.096 100.953 108.198 101.074 108.254 101.163C108.31 101.252 108.357 101.359 108.394 101.478C108.43 101.602 108.455 101.738 108.467 101.89C108.48 102.043 108.486 102.235 108.486 102.464C108.486 102.963 108.43 103.309 108.319 103.506C108.207 103.704 108.071 103.804 107.912 103.804C107.726 103.804 107.513 103.698 107.272 103.488C107.03 103.277 106.725 103.046 106.353 102.79C105.985 102.534 105.535 102.303 105.01 102.093C104.484 101.88 103.864 101.776 103.147 101.776C101.676 101.776 100.549 102.36 99.7652 103.525C98.9794 104.693 98.5882 106.384 98.5882 108.604C98.5882 109.713 98.6885 110.685 98.8932 111.519C99.097 112.355 99.397 113.053 99.7917 113.614C100.187 114.175 100.672 114.592 101.247 114.867C101.821 115.14 102.48 115.279 103.22 115.279C103.926 115.279 104.543 115.163 105.074 114.934C105.605 114.704 106.067 114.452 106.456 114.179C106.845 113.904 107.171 113.656 107.439 113.432C107.705 113.21 107.912 113.096 108.06 113.096C108.146 113.096 108.22 113.123 108.283 113.174C108.344 113.225 108.396 113.313 108.439 113.432C108.481 113.553 108.514 113.707 108.532 113.891C108.55 114.077 108.561 114.297 108.561 114.551" fill="#666666"/>
<path d="M121.294 115.909C121.294 116.28 121.27 116.571 121.22 116.789C121.17 117.005 121.097 117.165 120.997 117.265C120.898 117.37 120.75 117.464 120.552 117.553C120.355 117.644 120.129 117.716 119.876 117.773C119.623 117.83 119.354 117.879 119.07 117.917C118.785 117.955 118.502 117.974 118.216 117.974C117.351 117.974 116.611 117.857 115.993 117.622C115.374 117.385 114.868 117.026 114.473 116.551C114.077 116.073 113.79 115.466 113.61 114.734C113.431 114 113.343 113.136 113.343 112.141V102.083H111.007C110.822 102.083 110.673 101.981 110.562 101.776C110.45 101.571 110.394 101.24 110.394 100.781C110.394 100.54 110.409 100.335 110.441 100.17C110.472 100.003 110.511 99.8668 110.562 99.7588C110.609 99.6488 110.675 99.573 110.755 99.5294C110.836 99.4858 110.925 99.4611 111.024 99.4611H113.343V95.3703C113.343 95.2812 113.363 95.1978 113.407 95.1201C113.45 95.0443 113.529 94.9779 113.648 94.9192C113.764 94.8623 113.923 94.8225 114.12 94.7959C114.317 94.7694 114.565 94.7561 114.863 94.7561C115.172 94.7561 115.424 94.7694 115.622 94.7959C115.819 94.8225 115.973 94.8623 116.084 94.9192C116.196 94.9779 116.276 95.0443 116.327 95.1201C116.375 95.1978 116.4 95.2812 116.4 95.3703V99.4611H120.682C120.782 99.4611 120.868 99.4858 120.942 99.5294C121.015 99.573 121.082 99.6488 121.137 99.7588C121.193 99.8668 121.233 100.003 121.258 100.17C121.281 100.335 121.294 100.54 121.294 100.781C121.294 101.24 121.238 101.571 121.127 101.776C121.015 101.981 120.868 102.083 120.682 102.083H116.4V111.683C116.4 112.867 116.571 113.764 116.91 114.368C117.251 114.974 117.859 115.279 118.737 115.279C119.02 115.279 119.273 115.248 119.496 115.191C119.718 115.134 119.916 115.073 120.089 115.009C120.262 114.947 120.41 114.886 120.534 114.828C120.659 114.77 120.769 114.742 120.868 114.742C120.929 114.742 120.989 114.757 121.044 114.791C121.099 114.822 121.143 114.884 121.173 114.974C121.204 115.061 121.233 115.181 121.258 115.336C121.281 115.489 121.294 115.681 121.294 115.909" fill="#666666"/>
<path d="M149.271 105.065C148.442 104.007 147.641 103.201 146.87 102.648C146.097 102.093 145.291 101.813 144.452 101.813C143.673 101.813 143.01 102.005 142.466 102.388C141.923 102.771 141.482 103.275 141.142 103.899C140.802 104.524 140.554 105.232 140.399 106.022C140.245 106.813 140.168 107.616 140.168 108.431C140.168 109.298 140.233 110.147 140.364 110.976C140.493 111.803 140.719 112.539 141.04 113.184C141.362 113.829 141.787 114.344 142.319 114.734C142.85 115.123 143.519 115.316 144.32 115.316C144.73 115.316 145.121 115.259 145.497 115.144C145.874 115.031 146.262 114.836 146.657 114.571C147.051 114.303 147.465 113.955 147.898 113.529C148.33 113.1 148.788 112.575 149.271 111.95V105.065ZM152.348 117.172C152.348 117.273 152.327 117.361 152.281 117.438C152.239 117.516 152.165 117.576 152.059 117.622C151.956 117.665 151.815 117.699 151.644 117.726C151.47 117.75 151.26 117.764 151.013 117.764C150.753 117.764 150.538 117.75 150.364 117.726C150.191 117.699 150.05 117.665 149.938 117.622C149.828 117.576 149.746 117.516 149.696 117.438C149.647 117.361 149.623 117.273 149.623 117.172V114.894C148.745 115.878 147.834 116.642 146.888 117.189C145.942 117.737 144.907 118.012 143.783 118.012C142.56 118.012 141.516 117.767 140.65 117.276C139.786 116.788 139.084 116.122 138.546 115.288C138.009 114.452 137.617 113.472 137.369 112.342C137.123 111.214 136.999 110.025 136.999 108.776C136.999 107.298 137.154 105.962 137.462 104.769C137.771 103.577 138.229 102.561 138.833 101.717C139.44 100.877 140.19 100.229 141.087 99.7777C141.983 99.3266 143.018 99.0972 144.191 99.0972C145.167 99.0972 146.061 99.319 146.87 99.7588C147.679 100.198 148.48 100.845 149.271 101.7V91.6965C149.271 91.6074 149.293 91.5221 149.335 91.4387C149.378 91.3553 149.462 91.2928 149.585 91.2473C149.708 91.2018 149.867 91.1657 150.059 91.1316C150.249 91.1013 150.495 91.0861 150.791 91.0861C151.099 91.0861 151.353 91.1013 151.55 91.1316C151.747 91.1657 151.903 91.2018 152.015 91.2473C152.126 91.2928 152.208 91.3553 152.264 91.4387C152.32 91.5221 152.348 91.6074 152.348 91.6965V117.172" fill="#666666"/>
<path d="M169.162 106.883C169.196 105.226 168.84 103.924 168.088 102.98C167.337 102.037 166.22 101.565 164.741 101.565C163.982 101.565 163.317 101.711 162.745 102.005C162.172 102.299 161.694 102.687 161.308 103.173C160.923 103.657 160.625 104.221 160.414 104.864C160.202 105.508 160.083 106.181 160.059 106.883H169.162ZM172.239 107.819C172.239 108.318 172.116 108.67 171.874 108.881C171.633 109.091 171.355 109.197 171.045 109.197H160.059C160.059 110.153 160.153 111.013 160.338 111.777C160.526 112.543 160.836 113.199 161.27 113.749C161.703 114.297 162.269 114.717 162.966 115.009C163.66 115.303 164.511 115.449 165.516 115.449C166.312 115.449 167.019 115.383 167.64 115.248C168.261 115.116 168.8 114.966 169.252 114.801C169.705 114.634 170.077 114.484 170.369 114.35C170.661 114.217 170.881 114.149 171.03 114.149C171.116 114.149 171.194 114.173 171.262 114.217C171.331 114.263 171.385 114.328 171.422 114.418C171.458 114.505 171.486 114.632 171.504 114.791C171.524 114.951 171.534 115.144 171.534 115.373C171.534 115.538 171.526 115.684 171.515 115.804C171.502 115.925 171.486 116.033 171.469 116.129C171.451 116.224 171.418 116.311 171.376 116.388C171.331 116.463 171.276 116.537 171.208 116.607C171.14 116.677 170.94 116.791 170.608 116.95C170.273 117.11 169.839 117.265 169.308 117.421C168.777 117.574 168.162 117.71 167.464 117.83C166.766 117.953 166.021 118.012 165.231 118.012C163.859 118.012 162.657 117.815 161.624 117.421C160.594 117.026 159.725 116.439 159.021 115.661C158.317 114.884 157.784 113.908 157.426 112.734C157.069 111.561 156.889 110.198 156.889 108.641C156.889 107.161 157.075 105.832 157.446 104.653C157.815 103.474 158.35 102.475 159.048 101.651C159.747 100.83 160.59 100.198 161.578 99.7588C162.567 99.319 163.675 99.0972 164.899 99.0972C166.207 99.0972 167.322 99.3152 168.243 99.7474C169.163 100.184 169.92 100.766 170.514 101.499C171.105 102.233 171.543 103.093 171.82 104.079C172.098 105.069 172.239 106.125 172.239 107.245V107.819" fill="#666666"/>
<path d="M190.42 99.9199C190.42 99.9711 190.417 100.026 190.411 100.083C190.404 100.14 190.395 100.202 190.384 100.265C190.371 100.33 190.356 100.399 190.336 100.475C190.318 100.551 190.297 100.635 190.272 100.724L184.581 117.076C184.531 117.216 184.467 117.331 184.386 117.421C184.306 117.507 184.186 117.58 184.026 117.631C183.865 117.68 183.659 117.716 183.414 117.736C183.166 117.754 182.858 117.764 182.486 117.764C182.117 117.764 181.807 117.75 181.56 117.726C181.312 117.699 181.112 117.661 180.958 117.61C180.803 117.561 180.682 117.49 180.596 117.402C180.509 117.313 180.441 117.202 180.392 117.076L174.72 100.724C174.67 100.572 174.63 100.438 174.598 100.322C174.567 100.206 174.549 100.123 174.543 100.064C174.538 100.008 174.534 99.9601 174.534 99.9199C174.534 99.8176 174.558 99.7285 174.609 99.6526C174.657 99.5749 174.74 99.5162 174.858 99.4726C174.975 99.4271 175.129 99.3986 175.321 99.3853C175.513 99.3721 175.752 99.3664 176.035 99.3664C176.394 99.3664 176.682 99.3759 176.897 99.3948C177.114 99.4138 177.281 99.4498 177.397 99.4991C177.516 99.5522 177.603 99.6147 177.658 99.6905C177.713 99.7683 177.764 99.863 177.816 99.977L182.523 114.169L182.597 114.399L182.654 114.169L187.306 99.977C187.332 99.863 187.374 99.7683 187.435 99.6905C187.497 99.6147 187.587 99.5522 187.705 99.4991C187.822 99.4498 187.982 99.4138 188.186 99.3948C188.39 99.3759 188.658 99.3664 188.993 99.3664C189.278 99.3664 189.511 99.3721 189.698 99.3853C189.882 99.3986 190.027 99.429 190.134 99.482C190.239 99.5313 190.312 99.592 190.356 99.6621C190.398 99.7323 190.42 99.8176 190.42 99.9199" fill="#666666"/>
<path d="M204.704 106.883C204.739 105.226 204.383 103.924 203.631 102.98C202.878 102.037 201.763 101.565 200.282 101.565C199.525 101.565 198.86 101.711 198.286 102.005C197.715 102.299 197.237 102.687 196.851 103.173C196.465 103.657 196.168 104.221 195.957 104.864C195.745 105.508 195.626 106.181 195.6 106.883H204.704ZM207.78 107.819C207.78 108.318 207.659 108.67 207.416 108.881C207.174 109.091 206.898 109.197 206.588 109.197H195.6C195.6 110.153 195.694 111.013 195.881 111.777C196.067 112.543 196.377 113.199 196.813 113.749C197.246 114.297 197.812 114.717 198.509 115.009C199.201 115.303 200.052 115.449 201.059 115.449C201.855 115.449 202.562 115.383 203.181 115.248C203.802 115.116 204.341 114.966 204.793 114.801C205.246 114.634 205.62 114.484 205.912 114.35C206.204 114.217 206.424 114.149 206.573 114.149C206.659 114.149 206.737 114.173 206.805 114.217C206.874 114.263 206.928 114.328 206.964 114.418C207.001 114.505 207.029 114.632 207.047 114.791C207.067 114.951 207.077 115.144 207.077 115.373C207.077 115.538 207.069 115.684 207.058 115.804C207.045 115.925 207.029 116.033 207.01 116.129C206.994 116.224 206.961 116.311 206.919 116.388C206.874 116.463 206.819 116.537 206.751 116.607C206.683 116.677 206.481 116.791 206.151 116.95C205.816 117.11 205.382 117.265 204.851 117.421C204.32 117.574 203.705 117.71 203.007 117.83C202.308 117.953 201.564 118.012 200.774 118.012C199.402 118.012 198.2 117.815 197.167 117.421C196.137 117.026 195.268 116.439 194.564 115.661C193.858 114.884 193.327 113.908 192.969 112.734C192.612 111.561 192.432 110.198 192.432 108.641C192.432 107.161 192.616 105.832 192.989 104.653C193.358 103.474 193.893 102.475 194.591 101.651C195.29 100.83 196.133 100.198 197.121 99.7588C198.11 99.319 199.216 99.0972 200.44 99.0972C201.75 99.0972 202.865 99.3152 203.786 99.7474C204.706 100.184 205.463 100.766 206.057 101.499C206.648 102.233 207.084 103.093 207.363 104.079C207.641 105.069 207.78 106.125 207.78 107.245V107.819" fill="#666666"/>
<path d="M215.492 117.172C215.492 117.273 215.466 117.358 215.418 117.428C215.367 117.5 215.288 117.561 215.178 117.61C215.066 117.661 214.91 117.699 214.713 117.726C214.514 117.75 214.263 117.764 213.954 117.764C213.656 117.764 213.41 117.75 213.21 117.726C213.013 117.699 212.855 117.661 212.739 117.61C212.622 117.561 212.541 117.5 212.499 117.428C212.455 117.358 212.434 117.273 212.434 117.172V91.6207C212.434 91.5184 212.455 91.4312 212.499 91.3534C212.541 91.2776 212.622 91.2132 212.739 91.162C212.855 91.1108 213.013 91.0729 213.21 91.0464C213.41 91.0217 213.656 91.0084 213.954 91.0084C214.263 91.0084 214.514 91.0217 214.713 91.0464C214.91 91.0729 215.066 91.1108 215.178 91.162C215.288 91.2132 215.367 91.2776 215.418 91.3534C215.466 91.4312 215.492 91.5184 215.492 91.6207V117.172Z" fill="#666666"/>
<path d="M233.493 108.583C233.493 107.654 233.409 106.773 233.239 105.946C233.07 105.116 232.795 104.388 232.407 103.764C232.021 103.14 231.498 102.648 230.836 102.282C230.175 101.92 229.353 101.738 228.369 101.738C227.455 101.738 226.674 101.903 226.018 102.235C225.364 102.568 224.826 103.036 224.402 103.641C223.977 104.246 223.663 104.962 223.457 105.793C223.251 106.621 223.148 107.527 223.148 108.507C223.148 109.451 223.233 110.337 223.4 111.167C223.569 111.995 223.85 112.717 224.242 113.335C224.635 113.955 225.162 114.446 225.824 114.81C226.483 115.173 227.306 115.354 228.291 115.354C229.19 115.354 229.971 115.19 230.63 114.858C231.29 114.526 231.832 114.06 232.258 113.462C232.681 112.862 232.993 112.147 233.192 111.321C233.392 110.49 233.493 109.578 233.493 108.583V108.583ZM236.661 108.374C236.661 109.775 236.483 111.068 236.124 112.247C235.766 113.427 235.231 114.443 234.52 115.296C233.809 116.152 232.92 116.818 231.852 117.296C230.783 117.773 229.543 118.012 228.135 118.012C226.763 118.012 225.566 117.804 224.547 117.381C223.529 116.96 222.68 116.349 222 115.546C221.32 114.742 220.813 113.768 220.48 112.619C220.146 111.472 219.979 110.171 219.979 108.719C219.979 107.314 220.155 106.026 220.506 104.847C220.859 103.668 221.392 102.649 222.101 101.795C222.812 100.94 223.698 100.278 224.762 99.8062C225.824 99.3341 227.066 99.0972 228.488 99.0972C229.859 99.0972 231.053 99.3095 232.075 99.7284C233.094 100.15 233.943 100.761 234.623 101.565C235.303 102.369 235.812 103.346 236.152 104.49C236.492 105.639 236.661 106.932 236.661 108.374" fill="#666666"/>
<path d="M253.344 108.661C253.344 107.781 253.278 106.93 253.15 106.108C253.019 105.285 252.793 104.555 252.479 103.918C252.161 103.281 251.735 102.771 251.2 102.388C250.666 102.005 250 101.814 249.203 101.814C248.808 101.814 248.415 101.874 248.031 101.996C247.645 102.117 247.252 102.308 246.855 102.57C246.456 102.829 246.041 103.175 245.603 103.601C245.17 104.03 244.709 104.555 244.224 105.178V112.028C245.069 113.085 245.872 113.895 246.631 114.456C247.389 115.017 248.185 115.296 249.017 115.296C249.789 115.296 250.451 115.106 251.004 114.723C251.558 114.34 252.005 113.83 252.347 113.193C252.688 112.557 252.942 111.842 253.102 111.051C253.264 110.261 253.344 109.463 253.344 108.661V108.661ZM256.514 108.296C256.514 109.802 256.358 111.153 256.042 112.351C255.726 113.552 255.263 114.568 254.651 115.402C254.039 116.236 253.282 116.88 252.382 117.336C251.479 117.787 250.447 118.012 249.284 118.012C248.791 118.012 248.334 117.963 247.913 117.861C247.494 117.756 247.083 117.598 246.68 117.381C246.28 117.165 245.881 116.89 245.486 116.558C245.089 116.228 244.67 115.84 244.224 115.393V123.999C244.224 124.101 244.2 124.19 244.15 124.266C244.1 124.344 244.021 124.406 243.909 124.457C243.799 124.509 243.643 124.547 243.446 124.573C243.248 124.598 242.994 124.609 242.686 124.609C242.388 124.609 242.144 124.598 241.943 124.573C241.747 124.547 241.589 124.509 241.471 124.457C241.355 124.406 241.275 124.344 241.23 124.266C241.188 124.19 241.166 124.101 241.166 123.999V99.9601C241.166 99.8441 241.184 99.7512 241.223 99.6811C241.258 99.6109 241.333 99.5522 241.445 99.4991C241.556 99.4498 241.697 99.4138 241.87 99.3948C242.044 99.3759 242.254 99.3664 242.5 99.3664C242.761 99.3664 242.974 99.3759 243.141 99.3948C243.307 99.4138 243.446 99.4498 243.557 99.4991C243.669 99.5522 243.746 99.6109 243.788 99.6811C243.832 99.7512 243.854 99.8441 243.854 99.9601V102.273C244.361 101.738 244.848 101.272 245.319 100.877C245.787 100.483 246.261 100.153 246.737 99.8915C247.211 99.6318 247.7 99.4327 248.2 99.3C248.701 99.1655 249.229 99.0972 249.785 99.0972C250.996 99.0972 252.027 99.3399 252.881 99.8251C253.734 100.31 254.429 100.974 254.967 101.814C255.503 102.655 255.897 103.634 256.145 104.75C256.391 105.867 256.514 107.047 256.514 108.296" fill="#666666"/>
<path d="M285.859 117.172C285.859 117.273 285.834 117.358 285.786 117.428C285.734 117.5 285.655 117.561 285.545 117.61C285.433 117.661 285.277 117.699 285.08 117.726C284.882 117.75 284.636 117.764 284.338 117.764C284.029 117.764 283.778 117.75 283.577 117.726C283.381 117.699 283.223 117.661 283.107 117.61C282.987 117.561 282.905 117.5 282.857 117.428C282.806 117.358 282.782 117.273 282.782 117.172V106.71C282.782 105.982 282.721 105.32 282.596 104.72C282.473 104.122 282.275 103.605 282.003 103.173C281.731 102.739 281.385 102.407 280.964 102.178C280.546 101.946 280.049 101.833 279.482 101.833C278.778 101.833 278.069 102.113 277.361 102.674C276.648 103.235 275.867 104.058 275.015 105.143V117.172C275.015 117.273 274.991 117.358 274.94 117.428C274.892 117.5 274.807 117.561 274.69 117.61C274.572 117.661 274.416 117.699 274.217 117.726C274.019 117.75 273.773 117.764 273.475 117.764C273.192 117.764 272.948 117.75 272.744 117.726C272.542 117.699 272.38 117.661 272.262 117.61C272.145 117.561 272.064 117.5 272.02 117.428C271.978 117.358 271.956 117.273 271.956 117.172V106.71C271.956 105.982 271.888 105.32 271.752 104.72C271.618 104.122 271.412 103.605 271.142 103.173C270.868 102.739 270.526 102.407 270.111 102.178C269.697 101.946 269.207 101.833 268.637 101.833C267.934 101.833 267.222 102.113 266.506 102.674C265.789 103.235 265.01 104.058 264.171 105.143V117.172C264.171 117.273 264.145 117.358 264.097 117.428C264.046 117.5 263.968 117.561 263.856 117.61C263.744 117.661 263.588 117.699 263.391 117.726C263.195 117.75 262.941 117.764 262.633 117.764C262.335 117.764 262.089 117.75 261.89 117.726C261.692 117.699 261.534 117.661 261.418 117.61C261.3 117.561 261.22 117.5 261.177 117.428C261.135 117.358 261.113 117.273 261.113 117.172V99.9601C261.113 99.8574 261.131 99.7721 261.168 99.7019C261.205 99.6318 261.28 99.5673 261.391 99.5086C261.503 99.4517 261.644 99.4138 261.817 99.3948C261.99 99.3759 262.217 99.3664 262.502 99.3664C262.774 99.3664 263 99.3759 263.178 99.3948C263.357 99.4138 263.498 99.4517 263.595 99.5086C263.695 99.5673 263.766 99.6318 263.81 99.7019C263.853 99.7721 263.875 99.8574 263.875 99.9601V102.235C264.812 101.15 265.725 100.358 266.609 99.8536C267.491 99.3493 268.386 99.0972 269.286 99.0972C269.979 99.0972 270.6 99.1806 271.151 99.3456C271.7 99.5124 272.183 99.7456 272.606 100.045C273.025 100.344 273.385 100.701 273.681 101.116C273.977 101.531 274.225 101.993 274.421 102.502C274.978 101.878 275.506 101.349 276.005 100.915C276.507 100.483 276.988 100.13 277.451 99.8631C277.914 99.5958 278.366 99.4024 278.805 99.2792C279.245 99.1598 279.686 99.0972 280.13 99.0972C281.205 99.0972 282.109 99.2925 282.837 99.6811C283.566 100.07 284.156 100.591 284.608 101.24C285.058 101.89 285.38 102.652 285.571 103.525C285.764 104.399 285.859 105.32 285.859 106.289V117.172" fill="#666666"/>
<path d="M302.598 106.883C302.633 105.226 302.277 103.924 301.525 102.98C300.774 102.037 299.656 101.565 298.177 101.565C297.42 101.565 296.753 101.711 296.182 102.005C295.609 102.299 295.131 102.687 294.745 103.173C294.361 103.657 294.062 104.221 293.85 104.864C293.639 105.508 293.519 106.181 293.496 106.883H302.598ZM305.676 107.819C305.676 108.318 305.553 108.67 305.31 108.881C305.069 109.091 304.792 109.197 304.481 109.197H293.496C293.496 110.153 293.589 111.013 293.775 111.777C293.962 112.543 294.273 113.199 294.706 113.749C295.14 114.297 295.706 114.717 296.402 115.009C297.097 115.303 297.948 115.449 298.955 115.449C299.748 115.449 300.456 115.383 301.077 115.248C301.698 115.116 302.236 114.966 302.688 114.801C303.142 114.634 303.513 114.484 303.805 114.35C304.097 114.217 304.318 114.149 304.467 114.149C304.553 114.149 304.63 114.173 304.698 114.217C304.77 114.263 304.821 114.328 304.858 114.418C304.895 114.505 304.924 114.632 304.941 114.791C304.961 114.951 304.97 115.144 304.97 115.373C304.97 115.538 304.963 115.684 304.952 115.804C304.939 115.925 304.924 116.033 304.906 116.129C304.888 116.224 304.854 116.311 304.812 116.388C304.77 116.463 304.713 116.537 304.645 116.607C304.577 116.677 304.377 116.791 304.044 116.95C303.71 117.11 303.276 117.265 302.745 117.421C302.214 117.574 301.599 117.71 300.9 117.83C300.202 117.953 299.458 118.012 298.668 118.012C297.295 118.012 296.094 117.815 295.061 117.421C294.03 117.026 293.161 116.439 292.457 115.661C291.754 114.884 291.223 113.908 290.863 112.734C290.506 111.561 290.326 110.198 290.326 108.641C290.326 107.161 290.512 105.832 290.883 104.653C291.252 103.474 291.787 102.475 292.485 101.651C293.183 100.83 294.027 100.198 295.015 99.7588C296.004 99.319 297.112 99.0972 298.335 99.0972C299.644 99.0972 300.759 99.3152 301.679 99.7474C302.6 100.184 303.357 100.766 303.95 101.499C304.544 102.233 304.979 103.093 305.257 104.079C305.536 105.069 305.676 106.125 305.676 107.245V107.819" fill="#666666"/>
<path d="M324.693 117.172C324.693 117.273 324.669 117.358 324.62 117.428C324.57 117.5 324.489 117.561 324.377 117.61C324.267 117.661 324.112 117.699 323.914 117.726C323.717 117.75 323.469 117.764 323.174 117.764C322.865 117.764 322.611 117.75 322.413 117.726C322.216 117.699 322.062 117.661 321.95 117.61C321.84 117.561 321.759 117.5 321.709 117.428C321.66 117.358 321.634 117.273 321.634 117.172V107.091C321.634 106.111 321.56 105.32 321.411 104.72C321.264 104.122 321.048 103.605 320.765 103.173C320.478 102.739 320.111 102.407 319.66 102.178C319.21 101.946 318.688 101.833 318.095 101.833C317.329 101.833 316.563 102.113 315.796 102.674C315.03 103.235 314.225 104.058 313.386 105.143V117.172C313.386 117.273 313.36 117.358 313.312 117.428C313.263 117.5 313.184 117.561 313.071 117.61C312.961 117.661 312.805 117.699 312.607 117.726C312.41 117.75 312.156 117.764 311.848 117.764C311.55 117.764 311.304 117.75 311.105 117.726C310.907 117.699 310.749 117.661 310.633 117.61C310.516 117.561 310.437 117.5 310.393 117.428C310.35 117.358 310.328 117.273 310.328 117.172V99.9601C310.328 99.8574 310.347 99.7721 310.383 99.7019C310.42 99.6318 310.495 99.5673 310.606 99.5086C310.718 99.4517 310.859 99.4138 311.032 99.3948C311.205 99.3759 311.434 99.3664 311.717 99.3664C311.989 99.3664 312.215 99.3759 312.393 99.3948C312.574 99.4138 312.713 99.4517 312.812 99.5086C312.91 99.5673 312.981 99.6318 313.026 99.7019C313.068 99.7721 313.09 99.8574 313.09 99.9601V102.235C314.029 101.15 314.964 100.358 315.897 99.8536C316.831 99.3493 317.773 99.0972 318.723 99.0972C319.837 99.0972 320.774 99.2925 321.535 99.6811C322.293 100.07 322.909 100.591 323.378 101.24C323.846 101.89 324.184 102.652 324.386 103.525C324.592 104.399 324.693 105.448 324.693 106.673V117.172" fill="#666666"/>
<path d="M338.606 115.909C338.606 116.28 338.582 116.571 338.532 116.789C338.481 117.005 338.408 117.165 338.308 117.265C338.211 117.37 338.062 117.464 337.864 117.553C337.667 117.644 337.441 117.716 337.187 117.773C336.934 117.83 336.666 117.879 336.383 117.917C336.096 117.955 335.813 117.974 335.528 117.974C334.663 117.974 333.922 117.857 333.305 117.622C332.686 117.385 332.181 117.026 331.785 116.551C331.389 116.073 331.102 115.466 330.922 114.734C330.742 114 330.654 113.136 330.654 112.141V102.083H328.318C328.133 102.083 327.984 101.981 327.874 101.776C327.762 101.571 327.706 101.24 327.706 100.781C327.706 100.54 327.721 100.335 327.752 100.17C327.784 100.003 327.822 99.8668 327.874 99.7588C327.921 99.6488 327.986 99.573 328.067 99.5294C328.147 99.4858 328.237 99.4611 328.337 99.4611H330.654V95.3703C330.654 95.2812 330.674 95.1978 330.72 95.1201C330.762 95.0443 330.841 94.9779 330.959 94.9192C331.076 94.8623 331.234 94.8225 331.431 94.7959C331.629 94.7694 331.876 94.7561 332.175 94.7561C332.484 94.7561 332.735 94.7694 332.934 94.7959C333.13 94.8225 333.285 94.8623 333.397 94.9192C333.507 94.9779 333.588 95.0443 333.638 95.1201C333.687 95.1978 333.713 95.2812 333.713 95.3703V99.4611H337.994C338.093 99.4611 338.18 99.4858 338.253 99.5294C338.327 99.573 338.393 99.6488 338.45 99.7588C338.505 99.8668 338.544 100.003 338.569 100.17C338.593 100.335 338.606 100.54 338.606 100.781C338.606 101.24 338.549 101.571 338.439 101.776C338.327 101.981 338.18 102.083 337.994 102.083H333.713V111.683C333.713 112.867 333.882 113.764 334.222 114.368C334.562 114.974 335.17 115.279 336.048 115.279C336.331 115.279 336.585 115.248 336.807 115.191C337.029 115.134 337.228 115.073 337.401 115.009C337.573 114.947 337.722 114.886 337.847 114.828C337.97 114.77 338.08 114.742 338.18 114.742C338.24 114.742 338.301 114.757 338.356 114.791C338.411 114.822 338.455 114.884 338.485 114.974C338.516 115.061 338.544 115.181 338.569 115.336C338.593 115.489 338.606 115.681 338.606 115.909" fill="#666666"/>
<path d="M535.214 106.643C535.214 105.47 534.901 104.56 534.278 103.896C533.657 103.24 532.766 102.912 531.623 102.912C531.026 102.912 530.512 103.017 530.072 103.222C529.633 103.425 529.271 103.705 528.979 104.059C528.687 104.42 528.47 104.827 528.331 105.291C528.191 105.758 528.116 106.249 528.116 106.755C528.116 107.888 528.426 108.787 529.056 109.437C529.679 110.085 530.548 110.408 531.675 110.408C532.285 110.408 532.807 110.309 533.251 110.112C533.696 109.915 534.063 109.64 534.355 109.293C534.642 108.939 534.864 108.539 535.004 108.08C535.144 107.621 535.214 107.142 535.214 106.643V106.643ZM536.759 120.277C536.759 119.541 536.459 118.971 535.869 118.563C535.283 118.164 534.497 117.955 533.492 117.928L529.17 117.771C528.775 118.091 528.454 118.392 528.198 118.683C527.95 118.971 527.746 119.24 527.594 119.501C527.449 119.763 527.346 120.027 527.289 120.277C527.237 120.531 527.206 120.792 527.206 121.063C527.206 121.888 527.62 122.517 528.433 122.944C529.246 123.368 530.383 123.587 531.838 123.587C532.766 123.587 533.541 123.496 534.166 123.312C534.789 123.128 535.296 122.88 535.678 122.571C536.059 122.267 536.34 121.915 536.503 121.522C536.669 121.128 536.759 120.715 536.759 120.277V120.277ZM540 102.115C540 102.558 539.938 102.88 539.822 103.076C539.708 103.273 539.555 103.373 539.364 103.373H536.974C537.407 103.83 537.712 104.334 537.883 104.892C538.054 105.449 538.144 106.027 538.144 106.622C538.144 107.621 537.992 108.499 537.679 109.259C537.369 110.027 536.93 110.676 536.351 111.206C535.779 111.733 535.094 112.139 534.306 112.419C533.516 112.704 532.641 112.84 531.675 112.84C530.993 112.84 530.352 112.749 529.742 112.563C529.126 112.376 528.648 112.146 528.318 111.862C528.095 112.091 527.912 112.355 527.772 112.649C527.631 112.939 527.555 113.278 527.555 113.659C527.555 114.106 527.759 114.48 528.165 114.766C528.56 115.064 529.093 115.227 529.767 115.246L534.122 115.443C534.954 115.464 535.71 115.581 536.402 115.798C537.09 116.008 537.692 116.302 538.201 116.696C538.705 117.082 539.098 117.56 539.39 118.125C539.669 118.696 539.809 119.35 539.809 120.107C539.809 120.899 539.649 121.645 539.327 122.36C539.01 123.075 538.519 123.704 537.859 124.248C537.196 124.786 536.351 125.213 535.322 125.528C534.306 125.842 533.086 126 531.693 126C530.346 126 529.196 125.882 528.255 125.645C527.309 125.41 526.534 125.088 525.929 124.675C525.319 124.269 524.885 123.784 524.613 123.211C524.34 122.65 524.2 122.033 524.2 121.371C524.2 120.95 524.25 120.537 524.353 120.144C524.455 119.75 524.608 119.371 524.81 119.018C525.014 118.662 525.268 118.32 525.565 117.995C525.865 117.666 526.221 117.344 526.616 117.03C526.006 116.709 525.56 116.309 525.268 115.824C524.975 115.338 524.836 114.814 524.836 114.256C524.836 113.477 524.988 112.782 525.301 112.171C525.611 111.555 525.993 111.011 526.451 110.525C526.069 110.054 525.764 109.523 525.536 108.926C525.319 108.336 525.205 107.621 525.205 106.776C525.205 105.798 525.371 104.912 525.688 104.139C526.006 103.358 526.451 102.702 527.021 102.166C527.594 101.635 528.274 101.222 529.069 100.934C529.868 100.643 530.734 100.507 531.675 100.507C532.184 100.507 532.654 100.534 533.091 100.592C533.53 100.643 533.944 100.729 534.324 100.827H539.364C539.579 100.827 539.732 100.934 539.842 101.142C539.949 101.352 540 101.68 540 102.115V102.115ZM520.496 118.538C520.496 118.643 520.47 118.728 520.419 118.792C520.375 118.865 520.285 118.925 520.178 118.977C520.07 119.029 519.917 119.069 519.713 119.096C519.517 119.12 519.268 119.128 518.974 119.128C518.664 119.128 518.41 119.12 518.212 119.096C518.017 119.069 517.857 119.029 517.749 118.977C517.642 118.925 517.56 118.865 517.508 118.792C517.464 118.728 517.437 118.643 517.437 118.538V108.459C517.437 107.477 517.361 106.69 517.209 106.086C517.062 105.491 516.847 104.972 516.56 104.539C516.283 104.105 515.912 103.773 515.461 103.542C515.009 103.313 514.489 103.2 513.892 103.2C513.13 103.2 512.367 103.483 511.597 104.041C510.829 104.603 510.026 105.424 509.188 106.507V118.538C509.188 118.643 509.165 118.728 509.111 118.792C509.062 118.865 508.984 118.925 508.871 118.977C508.757 119.029 508.604 119.069 508.406 119.096C508.209 119.12 507.956 119.128 507.651 119.128C507.351 119.128 507.103 119.12 506.906 119.096C506.71 119.069 506.552 119.029 506.43 118.977C506.317 118.925 506.239 118.865 506.188 118.792C506.151 118.728 506.125 118.643 506.125 118.538V101.326C506.125 101.222 506.144 101.137 506.182 101.07C506.221 100.998 506.291 100.934 506.405 100.873C506.519 100.822 506.658 100.78 506.831 100.763C507.004 100.742 507.232 100.736 507.516 100.736C507.79 100.736 508.02 100.742 508.196 100.763C508.374 100.78 508.514 100.822 508.611 100.873C508.707 100.934 508.782 100.998 508.819 101.07C508.871 101.137 508.889 101.222 508.889 101.326V103.602C509.824 102.518 510.765 101.726 511.698 101.222C512.634 100.715 513.574 100.465 514.526 100.465C515.632 100.465 516.575 100.657 517.337 101.051C518.093 101.438 518.71 101.956 519.18 102.604C519.651 103.259 519.98 104.019 520.183 104.892C520.387 105.764 520.496 106.814 520.496 108.04V118.538ZM500.813 95.5104C500.813 96.2516 500.672 96.7551 500.406 97.0247C500.134 97.2942 499.63 97.4244 498.906 97.4244C498.188 97.4244 497.697 97.2942 497.431 97.032C497.163 96.7684 497.03 96.2761 497.03 95.5496C497.03 94.8082 497.163 94.3101 497.438 94.0413C497.71 93.7717 498.206 93.6405 498.943 93.6405C499.656 93.6405 500.15 93.7656 500.418 94.0278C500.678 94.2907 500.813 94.7876 500.813 95.5104ZM499.496 100.827C499.865 100.827 500.121 100.913 500.253 101.091C500.393 101.26 500.455 101.51 500.455 101.844V118.538C500.455 118.643 500.431 118.728 500.385 118.792C500.336 118.865 500.253 118.925 500.137 118.977C500.018 119.029 499.858 119.069 499.661 119.096C499.465 119.12 499.222 119.128 498.943 119.128C498.632 119.128 498.377 119.12 498.18 119.096C497.978 119.069 497.826 119.029 497.71 118.977C497.591 118.925 497.508 118.865 497.457 118.792C497.405 118.728 497.379 118.643 497.379 118.538V103.451H488.762V113.049C488.762 114.237 488.935 115.128 489.271 115.738C489.614 116.34 490.224 116.642 491.101 116.642C491.38 116.642 491.636 116.616 491.858 116.557C492.08 116.497 492.282 116.44 492.448 116.374C492.628 116.315 492.773 116.256 492.892 116.197C493.019 116.138 493.135 116.112 493.23 116.112C493.295 116.112 493.35 116.126 493.407 116.158C493.466 116.19 493.502 116.251 493.536 116.34C493.567 116.427 493.592 116.552 493.618 116.702C493.642 116.853 493.655 117.048 493.655 117.28C493.655 117.646 493.629 117.934 493.58 118.146C493.528 118.354 493.46 118.517 493.363 118.624C493.262 118.734 493.109 118.832 492.918 118.917C492.714 119.011 492.492 119.082 492.24 119.142C491.985 119.2 491.716 119.247 491.432 119.285C491.152 119.325 490.86 119.344 490.579 119.344C489.716 119.344 488.971 119.227 488.354 118.99C487.731 118.754 487.229 118.392 486.836 117.917C486.436 117.437 486.156 116.832 485.971 116.099C485.794 115.365 485.704 114.506 485.704 113.507V103.451H483.371C483.182 103.451 483.037 103.345 482.928 103.144C482.814 102.939 482.755 102.604 482.755 102.145C482.755 101.91 482.776 101.699 482.801 101.537C482.833 101.371 482.877 101.235 482.928 101.123C482.972 101.017 483.042 100.939 483.119 100.894C483.195 100.854 483.285 100.827 483.386 100.827H485.704V96.7365C485.704 96.6455 485.725 96.5655 485.769 96.4886C485.815 96.4086 485.89 96.3441 486.009 96.2834C486.131 96.23 486.283 96.1864 486.487 96.1657C486.676 96.139 486.932 96.1265 487.224 96.1265C487.529 96.1265 487.784 96.139 487.987 96.1657C488.178 96.1864 488.337 96.23 488.444 96.2834C488.56 96.3441 488.635 96.4086 488.687 96.4886C488.736 96.5655 488.762 96.6455 488.762 96.7365V100.827H499.496ZM479.343 118.538C479.343 118.643 479.318 118.728 479.274 118.792C479.224 118.865 479.141 118.925 479.031 118.977C478.924 119.029 478.766 119.069 478.568 119.096C478.371 119.12 478.116 119.128 477.805 119.128C477.513 119.128 477.265 119.12 477.069 119.096C476.865 119.069 476.712 119.029 476.598 118.977C476.477 118.925 476.396 118.865 476.356 118.792C476.306 118.728 476.286 118.643 476.286 118.538V92.9852C476.286 92.8868 476.306 92.7956 476.356 92.7217C476.396 92.6438 476.477 92.5795 476.598 92.5261C476.712 92.4809 476.865 92.4409 477.069 92.4144C477.265 92.39 477.513 92.3765 477.805 92.3765C478.116 92.3765 478.371 92.39 478.568 92.4144C478.766 92.4409 478.924 92.4809 479.031 92.5261C479.141 92.5795 479.224 92.6438 479.274 92.7217C479.318 92.7956 479.343 92.8868 479.343 92.9852V118.538ZM470.651 118.538C470.651 118.643 470.625 118.728 470.584 118.792C470.54 118.865 470.465 118.925 470.357 118.977C470.243 119.029 470.097 119.069 469.912 119.096C469.735 119.12 469.517 119.128 469.258 119.128C468.971 119.128 468.743 119.12 468.565 119.096C468.387 119.069 468.24 119.029 468.131 118.977C468.03 118.925 467.961 118.865 467.922 118.792C467.891 118.728 467.865 118.643 467.865 118.538V116.262C466.915 117.344 465.978 118.138 465.05 118.635C464.126 119.128 463.185 119.376 462.235 119.376C461.122 119.376 460.185 119.187 459.426 118.805C458.665 118.426 458.05 117.901 457.579 117.246C457.111 116.59 456.776 115.824 456.569 114.952C456.365 114.08 456.264 113.019 456.264 111.771V101.326C456.264 101.222 456.286 101.137 456.332 101.07C456.372 100.998 456.455 100.934 456.578 100.873C456.703 100.822 456.864 100.78 457.061 100.763C457.259 100.742 457.506 100.736 457.801 100.736C458.101 100.736 458.344 100.742 458.546 100.763C458.742 100.78 458.898 100.822 459.016 100.873C459.134 100.934 459.22 100.998 459.266 101.07C459.317 101.137 459.341 101.222 459.341 101.326V111.347C459.341 112.355 459.413 113.162 459.556 113.765C459.696 114.374 459.913 114.885 460.203 115.318C460.493 115.744 460.861 116.072 461.307 116.309C461.752 116.544 462.27 116.662 462.864 116.662C463.63 116.662 464.392 116.381 465.151 115.824C465.912 115.259 466.718 114.44 467.573 113.358V101.326C467.573 101.222 467.593 101.137 467.637 101.07C467.681 100.998 467.764 100.934 467.891 100.873C468.012 100.822 468.17 100.78 468.361 100.763C468.552 100.742 468.8 100.736 469.111 100.736C469.403 100.736 469.658 100.742 469.848 100.763C470.052 100.78 470.204 100.822 470.318 100.873C470.428 100.934 470.509 100.998 470.568 101.07C470.625 101.137 470.651 101.222 470.651 101.326V118.538ZM451.986 113.851C451.986 114.736 451.826 115.515 451.514 116.203C451.2 116.891 450.751 117.475 450.169 117.947C449.588 118.419 448.897 118.775 448.093 119.018C447.29 119.259 446.406 119.376 445.443 119.376C444.85 119.376 444.284 119.333 443.747 119.24C443.209 119.142 442.726 119.018 442.301 118.872C441.875 118.728 441.513 118.571 441.217 118.413C440.918 118.256 440.703 118.112 440.57 117.981C440.432 117.856 440.335 117.68 440.269 117.448C440.21 117.219 440.179 116.905 440.179 116.512C440.179 116.269 440.19 116.066 440.216 115.901C440.24 115.731 440.269 115.6 440.307 115.496C440.346 115.395 440.398 115.324 440.464 115.28C440.533 115.233 440.611 115.213 440.695 115.213C440.833 115.213 441.031 115.298 441.3 115.467C441.566 115.64 441.893 115.829 442.281 116.032C442.672 116.237 443.13 116.427 443.664 116.597C444.194 116.768 444.804 116.853 445.496 116.853C446.018 116.853 446.485 116.8 446.909 116.682C447.326 116.571 447.692 116.4 448.001 116.178C448.309 115.955 448.546 115.672 448.714 115.324C448.881 114.984 448.964 114.57 448.964 114.099C448.964 113.621 448.842 113.206 448.603 112.878C448.365 112.545 448.043 112.248 447.648 112C447.251 111.746 446.806 111.517 446.314 111.318C445.818 111.123 445.311 110.913 444.785 110.696C444.258 110.48 443.747 110.237 443.246 109.96C442.746 109.686 442.297 109.352 441.904 108.958C441.505 108.565 441.188 108.093 440.947 107.542C440.706 106.992 440.583 106.336 440.583 105.576C440.583 104.899 440.712 104.251 440.965 103.633C441.221 103.011 441.599 102.472 442.106 102.008C442.612 101.542 443.246 101.168 444.008 100.886C444.767 100.606 445.653 100.465 446.667 100.465C447.111 100.465 447.556 100.507 448.001 100.579C448.447 100.657 448.846 100.755 449.206 100.867C449.564 100.985 449.869 101.103 450.125 101.24C450.375 101.371 450.569 101.489 450.7 101.595C450.827 101.693 450.915 101.784 450.957 101.864C451.001 101.936 451.034 102.021 451.049 102.118C451.067 102.217 451.088 102.336 451.106 102.472C451.126 102.611 451.135 102.787 451.135 102.99C451.135 103.208 451.126 103.398 451.106 103.555C451.088 103.713 451.056 103.845 451.014 103.947C450.97 104.046 450.919 104.119 450.854 104.166C450.795 104.211 450.726 104.232 450.652 104.232C450.54 104.232 450.378 104.166 450.169 104.019C449.959 103.883 449.687 103.731 449.355 103.574C449.02 103.411 448.627 103.267 448.175 103.123C447.725 102.986 447.211 102.912 446.628 102.912C446.11 102.912 445.653 102.972 445.256 103.097C444.861 103.216 444.539 103.39 444.284 103.616C444.028 103.838 443.839 104.099 443.709 104.408C443.578 104.709 443.514 105.043 443.514 105.398C443.514 105.897 443.637 106.316 443.885 106.651C444.131 106.992 444.456 107.286 444.85 107.542C445.245 107.797 445.695 108.027 446.204 108.23C446.707 108.435 447.227 108.643 447.751 108.859C448.275 109.075 448.796 109.318 449.307 109.587C449.82 109.858 450.274 110.177 450.672 110.565C451.064 110.944 451.382 111.403 451.624 111.942C451.867 112.472 451.986 113.115 451.986 113.851V113.851ZM435.949 118.538C435.949 118.643 435.922 118.728 435.876 118.792C435.824 118.865 435.745 118.925 435.633 118.977C435.521 119.029 435.367 119.069 435.17 119.096C434.973 119.12 434.725 119.128 434.43 119.128C434.119 119.128 433.867 119.12 433.667 119.096C433.469 119.069 433.316 119.029 433.206 118.977C433.094 118.925 433.011 118.865 432.965 118.792C432.914 118.728 432.888 118.643 432.888 118.538V108.459C432.888 107.477 432.815 106.69 432.666 106.086C432.521 105.491 432.302 104.972 432.017 104.539C431.734 104.105 431.367 103.773 430.916 103.542C430.464 103.313 429.943 103.2 429.347 103.2C428.583 103.2 427.817 103.483 427.051 104.041C426.284 104.603 425.481 105.424 424.644 106.507V118.538C424.644 118.643 424.616 118.728 424.566 118.792C424.517 118.865 424.434 118.925 424.324 118.977C424.212 119.029 424.061 119.069 423.864 119.096C423.662 119.12 423.412 119.128 423.102 119.128C422.805 119.128 422.558 119.12 422.36 119.096C422.163 119.069 422.005 119.029 421.887 118.977C421.77 118.925 421.689 118.865 421.646 118.792C421.603 118.728 421.581 118.643 421.581 118.538V101.326C421.581 101.222 421.602 101.137 421.639 101.07C421.675 100.998 421.75 100.934 421.862 100.873C421.973 100.822 422.113 100.78 422.286 100.763C422.459 100.742 422.687 100.736 422.974 100.736C423.243 100.736 423.469 100.742 423.648 100.763C423.828 100.78 423.967 100.822 424.067 100.873C424.166 100.934 424.236 100.998 424.28 101.07C424.322 101.137 424.342 101.222 424.342 101.326V103.602C425.283 102.518 426.218 101.726 427.153 101.222C428.087 100.715 429.028 100.465 429.981 100.465C431.093 100.465 432.026 100.657 432.787 101.051C433.549 101.438 434.161 101.956 434.634 102.604C435.104 103.259 435.44 104.019 435.644 104.892C435.846 105.764 435.949 106.814 435.949 108.04V118.538ZM413.92 109.948C413.92 109.024 413.837 108.139 413.669 107.312C413.502 106.486 413.221 105.758 412.836 105.129C412.448 104.505 411.924 104.014 411.264 103.646C410.604 103.288 409.781 103.102 408.795 103.102C407.885 103.102 407.105 103.273 406.45 103.602C405.795 103.936 405.255 104.403 404.831 105.011C404.406 105.614 404.092 106.328 403.886 107.163C403.681 107.987 403.577 108.893 403.577 109.875C403.577 110.819 403.663 111.705 403.832 112.533C403.999 113.364 404.278 114.086 404.674 114.702C405.065 115.324 405.593 115.811 406.253 116.178C406.912 116.539 407.736 116.722 408.721 116.722C409.617 116.722 410.399 116.557 411.06 116.224C411.721 115.896 412.262 115.43 412.687 114.827C413.111 114.23 413.421 113.515 413.622 112.69C413.823 111.856 413.92 110.944 413.92 109.948V109.948ZM417.092 109.739C417.092 111.141 416.91 112.434 416.554 113.614C416.195 114.794 415.662 115.811 414.95 116.662C414.239 117.521 413.349 118.184 412.28 118.662C411.214 119.142 409.974 119.376 408.562 119.376C407.193 119.376 405.996 119.167 404.979 118.747C403.957 118.328 403.107 117.718 402.429 116.912C401.75 116.112 401.241 115.136 400.907 113.987C400.573 112.84 400.408 111.541 400.408 110.085C400.408 108.683 400.584 107.392 400.936 106.211C401.29 105.032 401.819 104.014 402.531 103.161C403.24 102.31 404.126 101.646 405.192 101.174C406.253 100.702 407.496 100.465 408.916 100.465C410.288 100.465 411.483 100.677 412.502 101.097C413.524 101.516 414.372 102.132 415.052 102.932C415.732 103.739 416.239 104.709 416.581 105.857C416.92 107.005 417.092 108.302 417.092 109.739V109.739ZM397.828 115.915C397.828 116.138 397.823 116.323 397.81 116.485C397.799 116.642 397.778 116.774 397.745 116.885C397.713 116.99 397.679 117.088 397.634 117.173C397.589 117.253 397.491 117.376 397.34 117.534C397.183 117.691 396.92 117.888 396.55 118.125C396.179 118.36 395.763 118.571 395.298 118.76C394.835 118.944 394.333 119.096 393.789 119.206C393.244 119.325 392.684 119.376 392.103 119.376C390.903 119.376 389.839 119.176 388.912 118.768C387.988 118.36 387.211 117.763 386.585 116.976C385.962 116.197 385.486 115.233 385.158 114.093C384.832 112.95 384.67 111.632 384.67 110.145C384.67 108.446 384.869 106.992 385.269 105.771C385.673 104.56 386.224 103.555 386.918 102.782C387.618 102.001 388.442 101.425 389.386 101.051C390.331 100.67 391.353 100.487 392.456 100.487C392.985 100.487 393.5 100.534 394.002 100.637C394.501 100.742 394.962 100.873 395.381 101.038C395.8 101.208 396.176 101.398 396.504 101.614C396.83 101.83 397.069 102.014 397.218 102.166C397.365 102.323 397.469 102.441 397.523 102.532C397.58 102.617 397.625 102.723 397.663 102.846C397.699 102.966 397.724 103.102 397.737 103.259C397.749 103.411 397.756 103.602 397.756 103.83C397.756 104.33 397.699 104.675 397.587 104.875C397.476 105.07 397.341 105.169 397.181 105.169C396.995 105.169 396.784 105.062 396.542 104.854C396.299 104.645 395.994 104.414 395.623 104.16C395.251 103.902 394.803 103.667 394.279 103.459C393.755 103.246 393.132 103.144 392.416 103.144C390.945 103.144 389.818 103.726 389.032 104.892C388.248 106.062 387.856 107.752 387.856 109.968C387.856 111.083 387.959 112.054 388.162 112.886C388.365 113.726 388.666 114.421 389.061 114.984C389.459 115.541 389.941 115.96 390.516 116.237C391.092 116.505 391.749 116.642 392.489 116.642C393.195 116.642 393.812 116.531 394.346 116.302C394.877 116.072 395.337 115.816 395.725 115.547C396.116 115.273 396.443 115.024 396.706 114.8C396.974 114.579 397.181 114.467 397.329 114.467C397.415 114.467 397.488 114.493 397.552 114.537C397.613 114.592 397.666 114.677 397.708 114.8C397.753 114.918 397.784 115.075 397.803 115.259C397.819 115.443 397.828 115.667 397.828 115.915V115.915ZM356 98.8617C356 99.2009 356.045 99.5555 356.137 99.9081C356.231 100.27 356.371 100.643 356.565 101.03C356.755 101.417 356.992 101.838 357.269 102.283C357.546 102.729 357.879 103.227 358.259 103.773C359.162 103.254 359.919 102.769 360.531 102.329C361.141 101.889 361.635 101.465 362.006 101.057C362.375 100.651 362.644 100.243 362.809 99.8355C362.978 99.4246 363.061 98.9922 363.061 98.5338C363.061 98.1657 362.997 97.811 362.867 97.4703C362.736 97.1365 362.53 96.8328 362.247 96.5737C361.961 96.31 361.602 96.1072 361.169 95.9494C360.739 95.7999 360.22 95.7206 359.613 95.7206C358.959 95.7206 358.406 95.8116 357.954 95.982C357.503 96.1523 357.132 96.3818 356.842 96.67C356.552 96.9602 356.339 97.2942 356.203 97.6749C356.066 98.054 356 98.4538 356 98.8617V98.8617ZM353.849 112.171C353.849 112.834 353.956 113.435 354.173 113.987C354.389 114.537 354.706 115.009 355.13 115.41C355.549 115.811 356.074 116.126 356.702 116.347C357.335 116.571 358.062 116.682 358.891 116.682C359.397 116.682 359.892 116.63 360.373 116.517C360.855 116.414 361.317 116.262 361.754 116.08C362.194 115.896 362.61 115.672 363.007 115.41C363.402 115.149 363.765 114.872 364.1 114.579C363.457 114.008 362.817 113.411 362.181 112.793C361.544 112.171 360.929 111.555 360.337 110.925C359.743 110.302 359.17 109.68 358.621 109.064C358.072 108.446 357.57 107.843 357.112 107.254C356.493 107.659 355.978 108.067 355.564 108.467C355.148 108.873 354.814 109.272 354.563 109.672C354.309 110.072 354.128 110.48 354.017 110.886C353.906 111.299 353.849 111.726 353.849 112.171V112.171ZM350.531 112.491C350.531 111.79 350.622 111.128 350.807 110.499C350.995 109.862 351.284 109.254 351.681 108.664C352.076 108.067 352.591 107.494 353.229 106.937C353.864 106.387 354.634 105.825 355.535 105.267C355.04 104.577 354.619 103.955 354.265 103.39C353.913 102.833 353.622 102.31 353.395 101.824C353.165 101.34 353.004 100.873 352.905 100.435C352.802 99.9933 352.755 99.5556 352.755 99.1099C352.755 98.3175 352.884 97.5607 353.144 96.841C353.404 96.1183 353.82 95.4837 354.396 94.9282C354.97 94.3766 355.707 93.9368 356.61 93.6087C357.513 93.2866 358.605 93.1238 359.892 93.1238C360.979 93.1238 361.919 93.2407 362.718 93.4836C363.515 93.7264 364.177 94.0731 364.701 94.5203C365.228 94.966 365.623 95.5023 365.889 96.1316C366.152 96.761 366.287 97.4703 366.287 98.2456C366.287 98.998 366.168 99.686 365.934 100.308C365.698 100.939 365.324 101.542 364.805 102.132C364.284 102.715 363.62 103.301 362.809 103.876C362.002 104.461 361.024 105.07 359.874 105.705C360.294 106.23 360.752 106.776 361.246 107.337C361.739 107.91 362.253 108.48 362.793 109.051C363.332 109.627 363.88 110.19 364.442 110.747C365.006 111.299 365.558 111.831 366.102 112.342C366.35 112 366.573 111.606 366.77 111.168C366.967 110.728 367.141 110.262 367.288 109.771C367.438 109.28 367.548 108.781 367.621 108.27C367.697 107.758 367.731 107.24 367.731 106.721V106.035C367.731 105.904 367.755 105.798 367.799 105.712C367.841 105.635 367.913 105.563 368.012 105.504C368.11 105.449 368.254 105.406 368.447 105.377C368.638 105.358 368.889 105.346 369.197 105.346C369.47 105.346 369.7 105.352 369.894 105.358C370.084 105.371 370.242 105.406 370.367 105.449C370.487 105.491 370.579 105.563 370.633 105.661C370.69 105.752 370.715 105.883 370.715 106.048V106.526C370.715 107.24 370.658 107.942 370.541 108.63C370.423 109.318 370.265 109.995 370.059 110.649C369.854 111.304 369.601 111.934 369.298 112.533C368.996 113.134 368.659 113.686 368.287 114.197C368.844 114.657 369.33 115.037 369.743 115.344C370.157 115.653 370.509 115.901 370.801 116.093C371.09 116.283 371.333 116.414 371.523 116.493C371.713 116.571 371.872 116.603 371.997 116.603C372.121 116.603 372.238 116.603 372.35 116.59C372.461 116.576 372.549 116.597 372.615 116.642C372.686 116.696 372.737 116.8 372.775 116.952C372.813 117.102 372.829 117.339 372.829 117.659C372.829 117.981 372.822 118.232 372.813 118.426C372.8 118.618 372.779 118.76 372.747 118.853C372.714 118.95 372.664 119.029 372.59 119.096C372.515 119.154 372.377 119.214 372.182 119.265C371.984 119.319 371.724 119.344 371.403 119.344C371.155 119.344 370.884 119.299 370.59 119.206C370.29 119.12 369.944 118.963 369.549 118.741C369.153 118.517 368.695 118.211 368.167 117.832C367.644 117.448 367.03 116.965 366.325 116.374C365.806 116.813 365.257 117.213 364.684 117.581C364.109 117.955 363.496 118.269 362.847 118.531C362.199 118.787 361.52 118.997 360.807 119.142C360.1 119.285 359.33 119.357 358.502 119.357C357.722 119.357 356.985 119.291 356.285 119.147C355.587 119.011 354.942 118.805 354.351 118.55C353.757 118.289 353.226 117.961 352.755 117.56C352.286 117.168 351.888 116.722 351.56 116.216C351.232 115.71 350.979 115.149 350.798 114.523C350.62 113.894 350.531 113.221 350.531 112.491" fill="#666666"/>
</svg>
