<svg width="20" height="20" viewBox="0 0 20 20" fill="none" xmlns="http://www.w3.org/2000/svg">
<path d="M14.9687 19.7265C14.7305 19.7031 14.4844 19.6366 14.2422 19.539V19.5624C14.2305 19.5585 14.207 19.5429 14.1953 19.539C12.3711 18.8984 8.87498 17.289 5.71092 14.1249C2.52342 10.9374 0.98436 7.37883 0.29686 5.61711V5.59368C-0.00782678 4.68352 0.210923 3.69524 0.812485 2.99211L0.835923 2.96868V2.94524L3.08592 0.718676L3.17967 0.624926C3.80077 0.00383186 4.87889 0.00383186 5.49999 0.624926L8.5703 3.69524C9.19139 4.31633 9.19139 5.41789 8.5703 6.03899L7.09374 7.51555C7.35155 8.05071 8.01952 9.37102 9.20311 10.6093C10.3789 11.8398 11.7265 12.4648 12.25 12.6952L13.7969 11.1484L13.8672 11.1015C14.2187 10.8671 14.6211 10.7343 15.039 10.7499C15.4336 10.7656 15.8398 10.957 16.1406 11.289L16.164 11.2656L16.2109 11.3359L19.2344 14.3359C19.8555 14.957 19.8555 16.0585 19.2344 16.6796L16.914 18.9999C16.5859 19.3281 16.1445 19.5741 15.6719 19.6796C15.4453 19.7304 15.2109 19.7499 14.9687 19.7265ZM15.0859 18.2265C15.3711 18.246 15.6562 18.1249 15.8359 17.9452L18.1797 15.6249C18.3086 15.496 18.3086 15.5429 18.1797 15.414L15.039 12.2734C15.043 12.2773 15.039 12.2538 14.9687 12.2499C14.9101 12.246 14.8242 12.2968 14.7344 12.3437H14.6875L12.9297 14.1249L12.5781 14.4765L12.1328 14.3124C12.1328 14.3124 9.82811 13.4491 8.10155 11.6406C6.40624 9.86321 5.47655 7.67961 5.47655 7.67961L5.28905 7.21086L5.64061 6.83586L7.51561 4.96086C7.64452 4.83196 7.64452 4.87883 7.51561 4.74993L4.4453 1.67961C4.31639 1.55071 4.36327 1.55071 4.23436 1.67961L1.93749 3.95305C1.93358 3.95696 1.9453 3.96868 1.93749 3.97649L1.91405 3.99993C1.65233 4.32414 1.5742 4.6718 1.70311 5.07805C1.70702 5.08586 1.6992 5.09368 1.70311 5.10149C2.36717 6.7929 3.83202 10.1132 6.78905 13.0702C9.7578 16.039 13.125 17.5624 14.7578 18.1327L14.7812 18.1562H14.8047C14.8945 18.1952 14.9922 18.2187 15.0859 18.2265Z" fill="currentColor"/>
</svg>
