<svg width="224" height="128" viewBox="0 0 224 128" fill="none" xmlns="http://www.w3.org/2000/svg">
<g clip-path="url(#clip0)">
<path d="M0 223.514H223.51V0H0V223.514Z" fill="#8A9DB6"/>
<path d="M49.5846 52.4379C49.5846 50.2646 49.1784 48.4487 48.367 46.9902C47.5556 45.5327 46.5521 44.4475 45.3555 43.7307C44.1588 43.0159 42.9203 42.562 41.6411 42.3698C40.3628 42.1767 39.1173 42.0811 37.9067 42.0811H31.346V63.4955H37.7425C39.8879 63.4955 41.6689 63.2217 43.0856 62.6702C44.5023 62.1206 45.692 61.357 46.6547 60.3804C47.6174 59.4047 48.3471 58.235 48.8419 56.8731C49.3377 55.5121 49.5846 54.0327 49.5846 52.4379ZM57.0532 51.8604C57.0532 54.5285 56.6132 56.9358 55.7321 59.0812C54.8521 61.2266 53.5937 63.0564 51.958 64.5687C50.3203 66.0819 48.3113 67.2507 45.9329 68.076C43.5535 68.9013 40.7132 69.3145 37.4119 69.3145H31.346V88.5436C31.346 88.7627 31.2843 88.9548 31.1609 89.1211C31.0374 89.2853 30.8443 89.4157 30.5834 89.5123C30.3216 89.6089 29.9642 89.6915 29.5102 89.7602C29.0563 89.8289 28.4848 89.8637 27.7979 89.8637C27.1099 89.8637 26.5395 89.8289 26.0855 89.7602C25.6315 89.6915 25.2662 89.6089 24.9924 89.5123C24.7166 89.4157 24.5235 89.2853 24.414 89.1211C24.3045 88.9548 24.2487 88.7627 24.2487 88.5436V39.2746C24.2487 38.1745 24.5384 37.391 25.1158 36.9231C25.6933 36.4552 26.3394 36.2213 27.0552 36.2213H38.4852C39.64 36.2213 40.748 36.2701 41.8063 36.3656C42.8656 36.4622 44.118 36.6683 45.5616 36.9839C47.0061 37.3014 48.4765 37.8918 49.9768 38.7589C51.4751 39.6251 52.7475 40.6913 53.7938 41.9567C54.8391 43.222 55.6435 44.6875 56.207 46.352C56.7705 48.0166 57.0532 49.8514 57.0532 51.8604Z" fill="#FEFEFE"/>
<path d="M130.902 88.5443C130.902 88.7633 130.847 88.9554 130.737 89.1217C130.627 89.286 130.435 89.4164 130.159 89.513C129.884 89.6095 129.52 89.6922 129.066 89.7609C128.612 89.8295 128.056 89.8644 127.395 89.8644C126.679 89.8644 126.101 89.8295 125.662 89.7609C125.221 89.6922 124.864 89.6095 124.588 89.513C124.313 89.4164 124.121 89.286 124.011 89.1217C123.901 88.9554 123.845 88.7633 123.845 88.5443V64.859H99.5419V88.5443C99.5419 88.7633 99.4871 88.9554 99.3766 89.1217C99.2671 89.286 99.075 89.4164 98.7992 89.513C98.5244 89.6095 98.1601 89.6922 97.7061 89.7609C97.2531 89.8295 96.6807 89.8644 95.9937 89.8644C95.3337 89.8644 94.7692 89.8295 94.3023 89.7609C93.8334 89.6922 93.462 89.6095 93.1883 89.513C92.9125 89.4164 92.7203 89.286 92.6098 89.1217C92.4993 88.9554 92.4446 88.7633 92.4446 88.5443V37.2941C92.4446 37.0741 92.4993 36.882 92.6098 36.7167C92.7203 36.5524 92.9125 36.422 93.1883 36.3245C93.462 36.2289 93.8334 36.1462 94.3023 36.0766C94.7692 36.0089 95.3337 35.974 95.9937 35.974C96.6807 35.974 97.2531 36.0089 97.7061 36.0766C98.1601 36.1462 98.5244 36.2289 98.7992 36.3245C99.075 36.422 99.2671 36.5524 99.3766 36.7167C99.4871 36.882 99.5419 37.0741 99.5419 37.2941V58.6687H123.845V37.2941C123.845 37.0741 123.901 36.882 124.011 36.7167C124.121 36.5524 124.313 36.422 124.588 36.3245C124.864 36.2289 125.221 36.1462 125.662 36.0766C126.101 36.0089 126.679 35.974 127.395 35.974C128.056 35.974 128.612 36.0089 129.066 36.0766C129.52 36.1462 129.884 36.2289 130.159 36.3245C130.435 36.422 130.627 36.5524 130.737 36.7167C130.847 36.882 130.902 37.0741 130.902 37.2941V88.5443Z" fill="#FEFEFE"/>
<path d="M199.561 86.6866C199.561 87.1814 199.534 87.6154 199.478 87.9868C199.423 88.3581 199.328 88.6677 199.19 88.9146C199.051 89.1625 198.894 89.3407 198.715 89.4512C198.536 89.5617 198.337 89.6165 198.117 89.6165H172.493C171.86 89.6165 171.261 89.4034 170.698 88.9764C170.133 88.5503 169.852 87.8006 169.852 86.7274V39.11C169.852 38.0368 170.133 37.2881 170.698 36.8611C171.261 36.435 171.86 36.2219 172.493 36.2219H197.829C198.049 36.2219 198.248 36.2777 198.426 36.3872C198.605 36.4967 198.75 36.6759 198.86 36.9238C198.97 37.1707 199.059 37.4803 199.129 37.8506C199.197 38.223 199.231 38.6839 199.231 39.2335C199.231 39.7292 199.197 40.1623 199.129 40.5337C199.059 40.905 198.97 41.2086 198.86 41.4416C198.75 41.6756 198.605 41.8478 198.426 41.9573C198.248 42.0678 198.049 42.1226 197.829 42.1226H176.949V58.8758H194.857C195.077 58.8758 195.276 58.9365 195.455 59.0609C195.634 59.1844 195.786 59.3566 195.909 59.5766C196.034 59.7976 196.122 60.0993 196.178 60.4846C196.232 60.8699 196.261 61.3238 196.261 61.8455C196.261 62.3413 196.232 62.7684 196.178 63.1248C196.122 63.4832 196.034 63.7719 195.909 63.9909C195.786 64.2119 195.634 64.3702 195.455 64.4668C195.276 64.5634 195.077 64.6102 194.857 64.6102H176.949V83.7158H198.117C198.337 83.7158 198.536 83.7716 198.715 83.8811C198.894 83.9906 199.051 84.1628 199.19 84.3968C199.328 84.6308 199.423 84.9334 199.478 85.3047C199.534 85.6761 199.561 86.137 199.561 86.6866Z" fill="#FEFEFE"/>
<path d="M73.0127 29.6392V98.6344" stroke="#FEFEFE" stroke-width="0.486"/>
<path d="M150.432 29.6392V98.6344" stroke="#FEFEFE" stroke-width="0.486"/>
</g>
<defs>
<clipPath id="clip0">
<rect width="224" height="128" fill="white"/>
</clipPath>
</defs>
</svg>
